<?xml version="1.0" encoding="utf-8"?>
<!-- Generator: Adobe Illustrator 25.0.0, SVG Export Plug-In . SVG Version: 6.00 Build 0)  -->
<svg version="1.1" id="Layer_1" xmlns="http://www.w3.org/2000/svg" xmlns:xlink="http://www.w3.org/1999/xlink" x="0px" y="0px"
	 viewBox="0 0 242 245" style="enable-background:new 0 0 242 245;" xml:space="preserve">
<style type="text/css">
	.st0{fill:#A84217;}
	.st1{fill:#566F85;}
</style>
<g>
	<path class="st0" d="M128.7,202.7l-1.4,1.4h0l-3.4-4c-0.1-0.1-0.2-0.2-0.3-0.2c-0.1,0-0.2,0-0.3,0.1c-0.3,0.2-0.4,0.5-0.4,0.9
		c0,0.6,0.3,0.9,1,0.9h0.4v2.1h-2.1v-2.5c0-0.6,0.2-1.2,0.6-1.6l0.4-0.4l-1.4-1.6v-0.1l1.4-1.4l3,3.6c0.1,0.1,0.3,0.2,0.4,0.2
		c0.1,0,0.3-0.1,0.4-0.2c0.4-0.4,0.6-0.8,0.6-1c0-0.3-0.2-0.4-0.5-0.4H126v-2h2.3c0.1,0.3,0.2,0.7,0.2,1.2v0.2
		c0,0.4-0.1,0.8-0.3,1.2c-0.1,0.3-0.4,0.6-0.7,1l-0.5,0.5L128.7,202.7z"/>
	<path class="st1" d="M60.3,84.8c5.4,7.1,15.5-1.3,15.5,7.9c0,3.5-1.5,8.8-5.2,11.7c2.5-5.9,1.7-8-4.6-8c-2,0-4,0.3-5.5,0.3
		C63,93.2,62,88.8,60.3,84.8"/>
	<path class="st1" d="M73.7,121.6c3-3.1,3.1-4.6,4.1-9.3c9.3,3.8,13.3-1.2,13.3-8.3c0-7.6-2.4-7.3-11.4-7.3c2.3-2.9,1.6-8,0.1-11.3
		c1.3,1.3,2.7,2.7,7,2.7c6.2,0,6.9,3.5,6.9,10.2C93.7,116.1,89.4,122.8,73.7,121.6"/>
	<path class="st1" d="M105.9,88.4H131c-2.7,2.1-2.9,8.5-2.9,8.5h-5.2c-1.5,2.1,1,6.6,3.4,8.9c-1.4,1.5-4.3,5.7-4.3,5.7
		c-1-2.8-6.9-11.2-1.5-14.6c-7.9,0.1-17.5-0.1-25.4,0.1c2.7-4.3,2.1-7.4,0-11.6C96.9,86.7,97.7,88.4,105.9,88.4"/>
	<path class="st1" d="M134.3,85.1c1.5,1.1,2.2,2.9,9.1,2.9c7.4,0,8.7,3.2,8.7,10.7c0,5.6-1.9,11.5-3.4,12.6c0.2-1.5,0.4-3.2,0.4-4.8
		c0-5.1-1.7-9.9-8.5-9.9c-1.1-0.1-6.2-0.1-6.2-0.1c1.1-1.6,1.5-3.2,1.5-4.9C136,89.7,135.2,87.5,134.3,85.1 M113.9,119.5
		c1.5-1.3,4-4.7,4.3-9.7c0.8,3.7,6.3,5.3,15.8,5.3c13.1,0,31.7-6.5,31.7-15.5c0-2.1-2-2.8-5.4-2.8c-1.4,0-3.1,0.1-4.9,0.4
		c1.1-1.5,1.5-3.2,1.5-5.2c0-2.2-0.7-4.6-1.5-6.5c1.3,1.4,4.2,2.6,9.5,2.6c4.1,0,6.3,0.1,6.3,3.8c0,8.3-10.3,30.1-45.2,30.1
		C116.6,122,113.9,119.5,113.9,119.5"/>
	<path class="st1" d="M69.2,160.7c2.7-2.1,3.1-5.5,3.1-8.6c10.8,2.7,13.1-3.9,12.1-11.8c-0.7-5-3.1-4.3-9.6-4.3
		c2.3-2.8,2.2-6.1,0.1-11.3c4.5,2.9,5.1,2.4,17.8,2.4c18.2,0.1,15.9-1.9,15.9,27l-4.2,5.7c0.1-3,0.1-9.3-0.1-12.2
		c-0.8-10.7-1.2-12-8.7-12c-2.6,0-4,0.1-8.2,0.1C88.8,150.1,87.4,163.1,69.2,160.7"/>
	<path class="st1" d="M129.6,136.2l-16.4,0.1c2.3-3.2,2-7.3,0.4-11.7c3,2.4,4.2,3,13.1,3c9.9,0,16.9-1,16.9,11.9
		c0,2.9-1.9,11.9-6.9,13.7c6.9,0.4,11.1-1.5,11.1-1.5c-3.2,8.3-16.6,8.9-28.4,8.9c-3.1,0-5.7-0.1-7.4-0.4c2.4-2.1,3.8-5.5,4.2-8.6
		c3.9,3.2,23.1,5.2,23.1-8.4C139.2,138.1,134.5,136.2,129.6,136.2"/>
	<path class="st1" d="M164.9,153.9H162l0.2-0.9c1,0,1.9,0,2.9-0.1L164.9,153.9z M148.8,124.6c1.5,1.1,1.5,2.9,8.8,2.8
		c4-0.1,5.2,3.2,5.2,7.5c0,6.2-2.7,14.5-3.8,18.2c1.1,0,2.2,0,3.2-0.1c2.7-9.3,8.3-15.5,10.8-16.8l-7.1,0.1c2-3,1.1-7.7-1-11.3
		c2.9,2.4,7,2.4,9.4,2.4c4.3,0.1,5.2-0.3,5.1,3.6l-0.1,5.3c0,0-10.4,2.4-14.1,16.6c14.7-0.7,26.9-3.9,26.9-11.6
		c0-6.4-4.7-5.3-10.3-5.3c1.3-3.5,1.4-7.4-0.7-11.3c1.4,1.1,2.2,2.8,8.7,2.8c5.4,0,5.2,5.1,5.2,8c0,18.6-17.1,25.1-36.4,25.1
		c-1.2,0-2.4,0-3.5-0.1c2.5-7.6,4.1-14.1,4.1-18.4c0-3.8-1.2-5.7-4.1-5.7h-5.7C151.7,132.6,150.4,129,148.8,124.6"/>
	<path class="st1" d="M202.7,26.1L202.7,26.1L202.7,26.1z"/>
	<path class="st1" d="M202.7,26.1C202.7,26.1,202.7,26.1,202.7,26.1C202.7,26.1,202.7,26.1,202.7,26.1z"/>
	<path class="st1" d="M195.8,26.1L195.8,26.1C195.8,26.1,195.8,26.1,195.8,26.1L195.8,26.1 M202.1,88.7c0.1,0,0.1-0.1,0.1-0.2
		c0,0,0-0.1,0-0.1c0-0.2-0.1-0.4-0.3-0.4h-0.1c0,0-0.8-0.2-1-0.8c-0.1-0.5-0.1-0.9-0.6-1c-0.2-0.1-0.4-0.3-0.5-0.6
		c-0.1-0.5-0.1-1-0.7-1h0.1v-1.4c1.3-0.3,2.1-1.2,1-2.9c-1.2-1.8-1.3-5.3-1.3-6.3c0.3-0.1,0.5-0.3,0.5-0.7V73c0-0.4-0.3-0.7-0.7-0.7
		h-0.2v-1.9h0.9c0.8,0,0.7-0.5,0.9-1c0.1-0.3,0.4-0.5,0.6-0.6c0.6-0.1,0.6-0.5,0.8-1c0.2-0.5,1.2-0.8,1.2-0.8h0.2
		c0.2,0,0.3-0.1,0.3-0.3c0,0,0-0.1,0-0.1c0-0.2-0.2-0.4-0.4-0.4h-4.5v-3h0.1c0.6,0,1.1-0.5,1.1-1.1v-0.3c0.6-0.2,1.1-0.5,1.3-1.1
		c0.6-1.6-0.2-2.5-0.9-4.3c-0.5-1.3,0.1-2.3,0.5-2.8h0.8c0.3,0,0.5-0.2,0.6-0.4c0,0,0-0.1,0-0.1c0-0.3-0.3-0.6-0.6-0.6h-2.4V33.3
		v-0.6V32v-0.8v-2.8V27c0.1,0.3,0.1,0.6,0.3,0.8c0,0,0,0,0,0c0.1,0.2,0.4,0.1,0.4-0.1c0,0,0-0.1,0-0.1c0.1-0.5-0.1-0.8-0.3-1.2
		c0,0,0-0.1,0-0.1c-0.1-0.2-0.1-0.4,0-0.7c0-0.2,0.1-0.5,0.2-0.7c0-0.3,0-0.6-0.2-0.7c-0.1-0.1-0.3-0.2-0.5-0.3
		c-0.4-0.1-0.8,0-1.2,0.1c-0.1,0-0.2,0-0.3,0v-0.5c0.2,0,0.4-0.1,0.6-0.2c0.3-0.3,0.4-0.9,0.2-1.3c-0.2-0.5-0.5-1-0.7-1.5
		c-0.3-0.5-0.4-1.1-0.3-1.7c0-0.3,0.1-0.5,0.2-0.8c-0.1,0.1-0.2,0.2-0.3,0.3c-0.3,0.4-0.6,0.8-0.8,1.2c-0.2,0.4-0.4,0.9-0.4,1.4
		c-0.1,0.5-0.1,1,0,1.5c0.1,0.5,0.4,0.9,0.8,1c0.1,0,0.3,0.1,0.4,0.1V24c-0.2,0-0.4-0.1-0.6-0.1c-0.4-0.1-0.8-0.3-1.1,0
		c-0.2,0.2-0.3,0.5-0.4,0.8c0,0.1,0,0.1,0,0.2c0,0,0,0,0,0.1c0,0.2,0,0.5,0,0.7c0,0.2-0.1,0.5-0.1,0.7c-0.1,0.2,0,0.5,0.1,0.7
		c0.1,0.1,0.2,0.2,0.4,0.2v0.4v3.6V32v0.7v0.6v19.1h-2.4c-0.3,0-0.6,0.3-0.6,0.6c0,0.1,0,0.1,0,0.1c0.1,0.2,0.3,0.4,0.6,0.4h0.8
		c0.3,0.4,0.7,1,0.7,1.9c0,0.3-0.1,0.6-0.2,0.9c-0.7,1.9-1.5,2.7-0.9,4.3c0.2,0.6,0.7,0.9,1.3,1.1v0.3c0,0.2,0,0.4,0.1,0.5
		c0.2,0.3,0.5,0.5,0.9,0.5h0.1V64v1.5v0.7h-4.5c-0.2,0-0.4,0.2-0.4,0.4c0,0,0,0.1,0,0.1c0,0.2,0.2,0.3,0.3,0.3h0.2
		c0,0,1,0.2,1.2,0.8c0.1,0.4,0.1,0.7,0.5,0.9c0.1,0,0.2,0.1,0.3,0.1c0.2,0.1,0.5,0.3,0.6,0.6c0.1,0.4,0.1,0.7,0.3,0.9
		c0.1,0.1,0.3,0.1,0.5,0.1h0.9V71v0.7v0.5h-0.2c-0.4,0-0.7,0.3-0.7,0.7v0.6c0,0.3,0.2,0.6,0.5,0.7c0,0.2,0,0.6,0,1
		c-0.1,1.5-0.3,3.9-1.3,5.3c-0.3,0.4-0.4,0.8-0.5,1.1c-0.1,0.9,0.5,1.5,1.5,1.7v0.3v1h0.1c-0.2,0-0.3,0-0.4,0.1
		c-0.2,0.2-0.2,0.5-0.3,0.9c-0.1,0.3-0.3,0.5-0.5,0.6c-0.1,0-0.2,0.1-0.2,0.1c-0.3,0.2-0.3,0.5-0.4,0.9c-0.2,0.5-1,0.8-1,0.8
		c-1.1,0-2.2,0-3.4,0c0,0-0.7,3.6-3.7,7.6c0-6-1.7-7.3-6-7.3c-3.8,0-5.9-1.3-7.5-2.9c1.5,3.6,2.1,8.1-0.2,11.3h5.7
		c6.3,0,2,15-0.7,24.2l6.3-4.2l1.8-15.1c0.6-4.9,2.1-4.8,4.8-4.9c8.4-0.4,16.4-0.1,16.4,8.5c0,9.6-9.9,10.4-16.4,7.4
		c0,4.1-1.1,6-4.1,8.4c11.8,1.7,23.2-0.1,23.2-21C208.5,92.7,207.4,89.8,202.1,88.7"/>
	<polyline class="st1" points="200.1,54.4 200.1,54.4 200.1,54.4 200.1,54.4 	"/>
	<path class="st1" d="M198.5,26.1L198.5,26.1C198.5,26.1,198.5,26.1,198.5,26.1z"/>
	<path class="st1" d="M198.5,26.1C198.5,26.1,198.5,26.1,198.5,26.1C198.5,26.1,198.5,26.1,198.5,26.1z"/>
	<path class="st0" d="M93.9,50.1h-0.1c-0.2,0-0.4,0.1-0.5,0.2l-0.2,0.3c-0.2,0.3-0.3,0.6-0.3,1c0,0.6,0.1,1.4,0.3,2.6l0.1,0.6
		l-0.7,1.1h-0.3l0-3.4c0-0.8,0.2-1.4,0.5-1.8l0.2-0.2c0.1-0.1,0.1-0.2,0.1-0.2c0-0.1-0.1-0.1-0.2-0.1H88v-1.8h5.9V50.1z"/>
	<path class="st0" d="M99.9,52.1c0-0.4,0-0.7-0.1-1c-0.2-0.7-0.7-1-1.5-1h-1.7c-0.4,0-0.8,0.2-1,0.6c-0.3,0.4-0.4,0.9-0.4,1.5
		c0,0.3,0.1,0.6,0.2,0.9c0.1,0.4,0.3,0.7,0.6,0.8h2.5c0.5,0,0.9-0.1,1.1-0.4C99.8,53.1,99.9,52.7,99.9,52.1 M100.4,51.2v1
		c0,0.4,0,0.8-0.1,1.2l0,0.2c-0.2,0.8-0.4,1.5-0.8,2.1h-4l-0.3-0.6c-0.4-0.7-0.6-1.6-0.6-2.6c0-0.9,0.2-1.5,0.6-2l0.2-0.2
		c0.1-0.1,0.1-0.1,0.1-0.2c0-0.1-0.1-0.1-0.2-0.1h-0.7v-1.8h5.2C100.2,48.9,100.4,49.8,100.4,51.2"/>
	<path class="st0" d="M107.1,49.8c0,0.2-0.1,0.4-0.2,0.6l-0.1,0.2c-0.1,0.3-0.2,0.6-0.2,1c0,0.2,0.1,0.9,0.3,2l0.2,1.1l-0.7,1.1H106
		l-0.1-3.5c0-0.7,0.1-1.2,0.3-1.7l0.1-0.2c0-0.1,0.1-0.2,0.1-0.3c0-0.1-0.1-0.2-0.3-0.2h-3.4c-0.3,0-0.5,0.1-0.6,0.3
		c-0.2,0.3-0.3,0.6-0.3,1c0,0.7,0.1,1.5,0.2,2.3l0.2,1.1l-0.7,1.1h-0.2l-0.1-3.4c0-0.6,0-1.1,0.2-1.4c0,0,0.1-0.2,0.3-0.4
		c0.2-0.2,0.2-0.3,0.2-0.4c0-0.1-0.1-0.1-0.2-0.1H101v-1.8h6V49.8z"/>
	<path class="st0" d="M110.4,52.4c0,0.6,0,1.7-0.1,3.4h-0.4l-0.1-3.2c0-1.1-0.1-1.7-0.2-2c-0.1-0.3-0.5-0.5-1-0.5h-1v-1.8h2.6
		c0.1,0.3,0.2,0.6,0.2,1V52.4z"/>
	<path class="st0" d="M115.5,51.9c-0.3,0.4-0.4,0.8-0.4,1.1c0,0.4,0.1,1,0.3,1.7l-0.7,1.1h-0.3l0-2.3c0-0.6,0.2-1.1,0.5-1.5l0.3-0.4
		L115.5,51.9z M120.2,49.8c0,0.2-0.1,0.4-0.2,0.6l-0.1,0.2c-0.1,0.3-0.2,0.6-0.2,1c0,0.2,0.1,0.9,0.3,2l0.2,1.1l-0.7,1.1h-0.3
		l-0.1-3.5c0-0.7,0.1-1.2,0.3-1.7l0.1-0.2c0.1-0.1,0.1-0.2,0.1-0.3c0-0.1-0.1-0.2-0.3-0.2h-5.1v-1.8h6V49.8z"/>
	<path class="st0" d="M122.3,51.4c-0.4,0.3-0.6,0.8-0.6,1.5v1c0,1.2,0.1,2.2,0.3,2.9l0.1,0.4l-0.8,1.1h-0.3l-0.1-5.1
		c0-0.8,0.3-1.4,0.9-1.9l0.2-0.2L122.3,51.4z M126.9,50.1v0.8c0,0.9-0.5,1.6-1.4,2.2L124,54c-0.2,0.1-0.3,0.3-0.3,0.5
		c0,0.2,0.1,0.4,0.3,0.4l-0.7,0.7l-0.1-0.1c-0.3-0.1-0.4-0.4-0.4-0.7c0-0.2,0-0.3,0.1-0.4c0.2-0.3,0.5-0.6,1-0.9l1.3-0.8
		c0.5-0.3,0.8-0.8,0.8-1.4c0-0.9-0.5-1.4-1.4-1.4h-3.7v-1.8h5.5C126.7,48.6,126.9,49.2,126.9,50.1"/>
	<path class="st0" d="M133.2,50.1h-0.1c-0.2,0-0.4,0.1-0.5,0.2l-0.2,0.3c-0.2,0.3-0.3,0.6-0.3,1c0,0.6,0.1,1.4,0.3,2.6l0.1,0.6
		l-0.7,1.1h-0.3l0-3.4c0-0.8,0.2-1.4,0.5-1.8l0.2-0.2c0.1-0.1,0.1-0.2,0.1-0.2c0-0.1-0.1-0.1-0.2-0.1h-4.8v-1.8h5.9V50.1z"/>
	<path class="st0" d="M139.8,49.5c0,0.5-0.2,1-0.6,1.4c-0.3,0.3-0.5,0.5-0.8,0.7l-0.7,0.6l1.2,1c0.3,0.3,0.5,0.6,0.5,0.9v1.6h-5.2
		v-1.9h3.8c0,0,0,0,0,0c0,0,0,0,0-0.1l-1.5-1.1c-0.5-0.3-0.7-0.8-0.7-1.3l-0.1-1c0-0.2-0.1-0.3-0.3-0.3h-1.7v-1.8h2.4l0,1.7
		c0,0.4,0,0.7,0.1,0.9c0.1,0.3,0.2,0.5,0.5,0.7l0.2,0.1c0.1,0.1,0.2,0.1,0.4,0.1c0.1,0,0.3-0.1,0.6-0.2c0.3-0.2,0.5-0.3,0.7-0.6
		c0.2-0.2,0.3-0.4,0.3-0.6c0-0.2-0.1-0.4-0.4-0.4h-1.1v-1.8h2.3c0.1,0.3,0.2,0.6,0.2,1V49.5z"/>
	<path class="st0" d="M149.2,50.6c0,0.5-0.1,0.9-0.4,1.3c-0.2,0.3-0.5,0.6-1,1l-1.5,1.1c-0.2,0.1-0.3,0.3-0.3,0.5
		c0,0.2,0.1,0.4,0.4,0.5l-0.6,0.8l-0.1,0c-0.4-0.1-0.6-0.4-0.6-0.8c0-0.1,0-0.3,0.1-0.4c0.2-0.3,0.4-0.6,0.8-0.8l1.5-1.1
		c0.5-0.4,0.8-0.8,0.8-1.3c0-0.8-0.4-1.2-1.3-1.2h-3.5v-1.4c0-0.7,0.1-1.4,0.4-1.9l0.3-0.6c0-0.1,0.1-0.2,0.1-0.3
		c0-0.2-0.1-0.4-0.4-0.4h-0.5v-1.1h1.2c0.2,0.2,0.3,0.4,0.3,0.7v0.1c0,0.2-0.1,0.5-0.2,0.8l-0.5,1c-0.1,0.2-0.2,0.5-0.2,0.7
		c0,0.3,0.1,0.5,0.4,0.5h4.4c0.2,0.4,0.3,0.7,0.3,1.2V50.6z"/>
	<path class="st0" d="M155.9,49.5c0,0.3-0.1,0.7-0.3,1l-0.3,0.5c-0.5,0.7-0.8,1.7-1,2.9l-0.1,0.8c-0.1,0.4-0.2,0.6-0.4,0.7l-4,1.8
		v-1.9l2.1-0.8c0.2-0.1,0.3-0.3,0.2-0.5l-1.4-3.5c-0.1-0.2-0.1-0.4-0.2-0.4c0,0-0.1-0.1-0.2-0.1h-0.6v-1.8h2.6v1.8h-0.9
		c-0.2,0-0.2,0.1-0.1,0.4l1.3,3.4c0.1,0.2,0.1,0.3,0.2,0.3c0,0,0.1,0,0.2,0l0.3-0.2c0.2-0.1,0.3-0.2,0.3-0.4l0.1-0.4
		c0.3-1,0.8-1.8,1.3-2.6c0.1-0.1,0.1-0.2,0.1-0.2c0-0.1-0.1-0.2-0.3-0.2h-1.6v-1.8h2.5c0.1,0.3,0.1,0.5,0.1,0.7V49.5z"/>
	<path class="st0" d="M162.4,51.5v0.8c0,0.9-0.2,1.7-0.5,2.7l-0.3,0.8h-5v-1.9h3.8c1.1,0,1.6-0.6,1.6-1.8c0-1-0.3-1.7-0.8-1.9
		c-0.2-0.1-0.4-0.1-0.7-0.1h-1.9c-0.2,0-0.4,0-0.6,0.1c-0.2,0.1-0.4,0.2-0.5,0.4c-0.1,0.2-0.2,0.3-0.2,0.4c0,0.2,0.1,0.2,0.3,0.2
		h1.4v1.7h-2.4c-0.1-0.6-0.1-0.8-0.1-0.8c0-0.7,0.2-1.3,0.7-1.7l0.2-0.2c0.1,0,0.1-0.1,0.1-0.1c0-0.1-0.1-0.1-0.2-0.1h-0.5v-1.8h5
		C162.2,48.9,162.4,50,162.4,51.5"/>
	<path class="st0" d="M169.4,53l-0.2,2.7h-4.2v-1.9h3.3c0.5,0,0.8-0.5,0.8-1.4c0-0.9-0.3-1.6-0.9-1.9c-0.4-0.2-0.9-0.3-1.6-0.3
		c-0.7,0-1.3,0.3-1.8,0.9c-0.3,0.4-0.6,0.9-0.7,1.4c-0.1,0.5-0.2,1-0.2,1.6v1.7h-0.5c0-0.3,0-0.9,0-1.9c0-0.4,0-0.7,0.1-1.1
		c0.1-0.5,0.2-0.9,0.4-1.2c0.2-0.3,0.4-0.7,0.7-1c0.1-0.1,0.1-0.1,0.1-0.2c0-0.2-0.1-0.3-0.3-0.3H163v-1.8h2.2
		c0.1,0.2,0.2,0.4,0.2,0.7v0.3c0,0.2,0,0.4-0.1,0.5c0,0.1,0,0.2,0.1,0.2c0,0,0.1,0,0.1,0c0.4-0.2,0.7-0.4,0.8-0.5
		c0.2-0.3,0.4-0.7,0.5-1.4h0.1c0.5,0,1.1,0.3,1.6,0.8c0.6,0.6,0.9,1.6,0.9,3.1C169.4,52.3,169.4,52.6,169.4,53"/>
	<path class="st0" d="M85.3,61.8c0,0.5-0.1,0.9-0.4,1.3c-0.2,0.3-0.5,0.6-1,1l-1.5,1.1c-0.2,0.1-0.3,0.3-0.3,0.5
		c0,0.2,0.1,0.4,0.4,0.5L82,66.9l-0.1,0c-0.4-0.1-0.6-0.4-0.6-0.8c0-0.1,0-0.3,0.1-0.4c0.2-0.3,0.4-0.6,0.8-0.8l1.5-1.1
		c0.5-0.4,0.8-0.8,0.8-1.3c0-0.8-0.4-1.2-1.3-1.2h-3.5v-1.4c0-0.7,0.1-1.4,0.4-1.9l0.3-0.6c0-0.1,0.1-0.2,0.1-0.3
		c0-0.2-0.1-0.4-0.4-0.4h-0.5v-1.1h1.2c0.2,0.2,0.3,0.4,0.3,0.7v0.1c0,0.2-0.1,0.5-0.2,0.8l-0.5,1c-0.1,0.2-0.2,0.5-0.2,0.7
		c0,0.3,0.1,0.5,0.4,0.5H85c0.2,0.4,0.3,0.7,0.3,1.2V61.8z"/>
	<path class="st0" d="M92.4,65.9l-1.1,1.2h0L87.7,63c-0.1-0.1-0.2-0.2-0.3-0.2c-0.1,0-0.2,0-0.3,0.1c-0.1,0.1-0.3,0.3-0.4,0.5
		c-0.1,0.2-0.2,0.4-0.2,0.6c0,0.7,0.3,1.1,1,1.1h0.4v1.8h-2.1v-2.3c0-0.8,0.2-1.3,0.7-1.8l0.4-0.4l-1.5-1.8v-0.1l1.2-1.2h0l3,3.5
		c0.1,0.1,0.2,0.2,0.4,0.2c0.2,0,0.4-0.1,0.5-0.2c0.5-0.4,0.7-0.8,0.7-1.1c0-0.3-0.1-0.4-0.4-0.4h-1.1v-1.8H92
		c0.1,0.3,0.2,0.6,0.2,1v0.2c0,0.5-0.2,0.9-0.5,1.4c-0.3,0.4-0.6,0.7-0.9,1l-0.5,0.4L92.4,65.9z"/>
	<path class="st0" d="M98.1,63.6c0,1.4,0,2.6-0.1,3.3h-0.4l-0.1-3.6c0-0.9-0.1-1.5-0.3-1.7c-0.2-0.2-0.6-0.4-1.3-0.4h-3.3v-1.8h4.9
		c0.4,0.3,0.6,1,0.6,2V63.6z"/>
	<path class="st0" d="M106,61c0,0.2-0.1,0.4-0.2,0.6c-0.1,0.2-0.2,0.3-0.3,0.5l-0.4,0.6c-0.5,0.8-0.9,1.8-1.1,3.1l-0.2,1.1h-4.5
		L99,64.2c-0.1-0.6-0.1-0.9-0.1-1.1c0-0.7,0.2-1.2,0.5-1.5c0.1-0.1,0.1-0.1,0.1-0.2c0-0.1-0.1-0.1-0.2-0.1h-0.6v-1.8h2.2v1.8h-0.3
		c-0.2,0-0.4,0.1-0.6,0.2c-0.2,0.1-0.3,0.3-0.4,0.6c0,0.2-0.1,0.5-0.1,0.9c0,0.5,0.1,1.1,0.2,1.6l0.1,0.5h0.2c0.1,0,0.3-0.2,0.5-0.5
		l1.4-2.7c0.1-0.1,0.1-0.2,0.1-0.3c0-0.1-0.1-0.2-0.3-0.2h-0.4v-1.8h2.1v1.8H103c-0.2,0-0.3,0.1-0.5,0.4l-1.5,3
		c0,0.1-0.1,0.2-0.1,0.2c0,0.1,0.1,0.2,0.2,0.2h2.3l0.4-0.9c0.5-1,0.9-1.7,1.2-2.1l0.2-0.3c0.1-0.1,0.1-0.2,0.1-0.3
		c0-0.2-0.1-0.2-0.4-0.2h-1.1v-1.8h2c0.1,0.2,0.1,0.4,0.1,0.8V61z"/>
	<path class="st0" d="M109.2,61c0,0.3,0,0.6-0.1,0.8c-0.2,0.6-0.5,1.1-1,1.5l-0.6,0.5l-0.2-0.3c0.4-0.3,0.7-0.5,0.8-0.7
		c0.3-0.3,0.4-0.6,0.4-0.8c0-0.2-0.1-0.4-0.2-0.5c-0.1-0.1-0.3-0.2-0.5-0.2h-1.4v-1.8h2.5C109.1,59.7,109.2,60.3,109.2,61L109.2,61z
		"/>
	<path class="st0" d="M118.8,60.5c0,0.8-0.4,1.6-1.2,2.3l-1.8,1.6c0.4,1.6,1.1,2.9,1.9,3.9l-0.6,1.1h-0.2l-1.2-3.1
		c-0.5-1.3-0.8-2.6-0.9-3.9l0-0.3c0-0.4-0.1-0.6-0.1-0.6c-0.1-0.2-0.2-0.3-0.4-0.3h-1.5v-1.8h2.5v2.5c0,0.7,0.1,1.2,0.3,1.5
		c0.1,0.2,0.2,0.2,0.3,0.2c0.2,0,0.3-0.1,0.6-0.3l0.6-0.6c0.4-0.4,0.6-0.7,0.6-1c0-0.3-0.2-0.5-0.5-0.5h-1v-1.8h2.4
		c0,0.1,0.1,0.2,0.1,0.3c0,0.1,0,0.3,0,0.6V60.5z"/>
	<path class="st0" d="M124.6,63.6c0,1.4,0,2.6-0.1,3.3h-0.4l-0.1-3.6c0-0.9-0.1-1.5-0.3-1.7c-0.2-0.2-0.6-0.4-1.3-0.4h-3.3v-1.8h4.9
		c0.4,0.3,0.6,1,0.6,2V63.6z"/>
	<path class="st0" d="M131.8,65.9l-1.1,1.2h0L127,63c-0.1-0.1-0.2-0.2-0.3-0.2c-0.1,0-0.2,0-0.3,0.1c-0.1,0.1-0.3,0.3-0.4,0.5
		c-0.1,0.2-0.2,0.4-0.2,0.6c0,0.7,0.3,1.1,1,1.1h0.4v1.8h-2.1v-2.3c0-0.8,0.2-1.3,0.7-1.8l0.4-0.4l-1.5-1.8v-0.1l1.2-1.2h0l3,3.5
		c0.1,0.1,0.2,0.2,0.4,0.2c0.2,0,0.4-0.1,0.5-0.2c0.5-0.4,0.7-0.8,0.7-1.1c0-0.3-0.1-0.4-0.4-0.4h-1.1v-1.8h2.3
		c0.1,0.3,0.2,0.6,0.2,1v0.2c0,0.5-0.2,0.9-0.5,1.4c-0.3,0.4-0.6,0.7-0.9,1l-0.5,0.4L131.8,65.9z"/>
	<path class="st0" d="M138,61c0,0.3,0,0.6-0.1,0.8c-0.2,0.6-0.5,1.1-1,1.5l-0.6,0.5l-0.2-0.3c0.4-0.3,0.7-0.5,0.8-0.7
		c0.3-0.3,0.4-0.6,0.4-0.8c0-0.2-0.1-0.4-0.2-0.5c-0.1-0.1-0.3-0.2-0.5-0.2h-1.4v-1.8h2.5C137.9,59.7,138,60.3,138,61L138,61z"/>
	<path class="st0" d="M141.1,61c0,0.3,0,0.6-0.1,0.8c-0.2,0.6-0.5,1.1-1,1.5l-0.6,0.5l-0.2-0.3c0.4-0.3,0.7-0.5,0.8-0.7
		c0.3-0.3,0.4-0.6,0.4-0.8c0-0.2-0.1-0.4-0.2-0.5c-0.1-0.1-0.3-0.2-0.5-0.2h-1.4v-1.8h2.5C141,59.7,141.1,60.3,141.1,61L141.1,61z"
		/>
	<path class="st0" d="M145,66.9h-3.6V65h2.7l-0.1-0.4c-0.1-0.5-0.1-0.9-0.1-1.3c0-0.3,0-0.6,0.1-0.9l0.1-0.5c0-0.1,0-0.1,0-0.2
		c0-0.4-0.2-0.5-0.5-0.5H142v-1.8h2.6c0.1,0.2,0.2,0.6,0.2,1v0.2c0,0.3,0,0.8-0.1,1.3l-0.1,0.4c0,0.2,0,0.5,0,1.1
		c0,0.2,0.1,0.6,0.3,1.1l0.3,0.9V66.9z"/>
	<path class="st0" d="M151.7,60.7c0,0.3-0.1,0.7-0.3,1l-0.3,0.5c-0.5,0.7-0.8,1.7-1,2.9l-0.1,0.8c-0.1,0.4-0.2,0.6-0.4,0.7l-4,1.8
		v-1.9l2.1-0.8c0.2-0.1,0.3-0.3,0.2-0.5l-1.4-3.5c-0.1-0.2-0.1-0.4-0.2-0.4c0,0-0.1-0.1-0.2-0.1h-0.6v-1.8h2.6v1.8h-0.9
		c-0.2,0-0.2,0.1-0.1,0.4l1.3,3.4c0.1,0.2,0.1,0.3,0.2,0.3c0,0,0.1,0,0.2,0l0.3-0.2c0.2-0.1,0.3-0.2,0.3-0.4l0.1-0.4
		c0.3-1,0.8-1.8,1.3-2.6c0.1-0.1,0.1-0.2,0.1-0.2c0-0.1-0.1-0.2-0.3-0.2h-1.6v-1.8h2.5c0.1,0.3,0.1,0.5,0.1,0.7V60.7z"/>
	<path class="st0" d="M158,60.7c0,0.2-0.1,0.5-0.3,0.9l-0.1,0.1c-0.3,0.5-0.4,1.1-0.4,1.9v0.9c0,1.3,0.1,2.4,0.3,3.3l0.1,0.5
		l-0.8,1.1h-0.3l-0.1-5.1c0-1.2,0.2-2,0.5-2.5l0.1-0.2c0.1-0.1,0.1-0.2,0.1-0.3c0-0.1-0.1-0.2-0.3-0.2h-1.7v-1.8h2.7V60.7z"/>
	<path class="st0" d="M164.8,60.7c0,0.3-0.1,0.7-0.3,1l-0.3,0.5c-0.5,0.7-0.8,1.7-1,2.9l-0.1,0.8c-0.1,0.4-0.2,0.6-0.4,0.7l-4,1.8
		v-1.9l2.1-0.8c0.2-0.1,0.3-0.3,0.2-0.5l-1.4-3.5c-0.1-0.2-0.1-0.4-0.2-0.4c0,0-0.1-0.1-0.2-0.1h-0.6v-1.8h2.6v1.8h-0.9
		c-0.2,0-0.2,0.1-0.1,0.4l1.3,3.4c0.1,0.2,0.1,0.3,0.2,0.3c0,0,0.1,0,0.2,0l0.3-0.2c0.2-0.1,0.3-0.2,0.3-0.4l0.1-0.4
		c0.3-1,0.8-1.8,1.3-2.6c0.1-0.1,0.1-0.2,0.1-0.2c0-0.1-0.1-0.2-0.3-0.2h-1.6v-1.8h2.5c0.1,0.3,0.1,0.5,0.1,0.7V60.7z"/>
	<path class="st0" d="M171.7,64.2l-0.2,2.7h-4.2V65h3.3c0.5,0,0.8-0.5,0.8-1.4c0-0.9-0.3-1.6-0.9-1.9c-0.4-0.2-0.9-0.3-1.6-0.3
		c-0.7,0-1.3,0.3-1.8,0.9c-0.3,0.4-0.6,0.9-0.7,1.4c-0.1,0.5-0.2,1-0.2,1.6v1.7h-0.5c0-0.3,0-0.9,0-1.9c0-0.4,0-0.7,0.1-1.1
		c0.1-0.5,0.2-0.9,0.4-1.2c0.2-0.3,0.4-0.7,0.7-1c0.1-0.1,0.1-0.1,0.1-0.2c0-0.2-0.1-0.3-0.3-0.3h-1.2v-1.8h2.2
		c0.1,0.2,0.2,0.4,0.2,0.7v0.3c0,0.2,0,0.4-0.1,0.5c0,0.1,0,0.2,0.1,0.2c0,0,0.1,0,0.1,0c0.4-0.2,0.7-0.4,0.8-0.5
		c0.2-0.3,0.4-0.7,0.5-1.4h0.1c0.5,0,1.1,0.3,1.6,0.8c0.6,0.6,0.9,1.6,0.9,3.1C171.7,63.5,171.7,63.8,171.7,64.2"/>
	<path class="st0" d="M177.7,61.8c0,0.5-0.1,0.9-0.4,1.3c-0.2,0.3-0.5,0.6-1,1l-1.5,1.1c-0.2,0.1-0.3,0.3-0.3,0.5
		c0,0.2,0.1,0.4,0.4,0.5l-0.6,0.8l-0.1,0c-0.4-0.1-0.6-0.4-0.6-0.8c0-0.1,0-0.3,0.1-0.4c0.2-0.3,0.4-0.6,0.8-0.8l1.5-1.1
		c0.5-0.4,0.8-0.8,0.8-1.3c0-0.8-0.4-1.2-1.3-1.2h-3.5v-1.4c0-0.7,0.1-1.4,0.4-1.9l0.3-0.6c0-0.1,0.1-0.2,0.1-0.3
		c0-0.2-0.1-0.4-0.4-0.4h-0.5v-1.1h1.2c0.2,0.2,0.3,0.4,0.3,0.7v0.1c0,0.2-0.1,0.5-0.2,0.8l-0.5,1c-0.1,0.2-0.2,0.5-0.2,0.7
		c0,0.3,0.1,0.5,0.4,0.5h4.4c0.2,0.4,0.3,0.7,0.3,1.2V61.8z"/>
	<path class="st0" d="M87,178.2c0,1.4,0,2.6-0.1,3.3h-0.4l-0.1-3.6c0-0.9-0.1-1.5-0.3-1.7c-0.2-0.2-0.6-0.4-1.3-0.4h-3.3v-1.8h4.9
		c0.4,0.3,0.6,1,0.6,2V178.2z"/>
	<path class="st0" d="M90.3,178.2c0,0.6,0,1.7-0.1,3.4h-0.4l-0.1-3.2c0-1.1-0.1-1.7-0.2-2c-0.1-0.3-0.5-0.5-1-0.5h-1v-1.8h2.6
		c0.1,0.3,0.2,0.6,0.2,1V178.2z"/>
	<path class="st0" d="M92.2,177.7c-0.3,0.4-0.4,0.8-0.4,1.1c0,0.4,0.1,1,0.3,1.7l-0.7,1.1h-0.3l0-2.3c0-0.6,0.2-1.1,0.5-1.5l0.3-0.4
		L92.2,177.7z M96.9,175.5c0,0.2-0.1,0.4-0.2,0.6l-0.1,0.2c-0.1,0.3-0.2,0.6-0.2,1c0,0.2,0.1,0.9,0.3,2l0.2,1.1l-0.7,1.1h-0.3
		l-0.1-3.5c0-0.7,0.1-1.2,0.3-1.7l0.1-0.2c0.1-0.1,0.1-0.2,0.1-0.3c0-0.1-0.1-0.2-0.3-0.2h-5.1v-1.8h6V175.5z"/>
	<path class="st0" d="M104.2,176.7c0,0.6-0.2,1.4-0.5,2.2c-0.2,0.7-0.4,1.2-0.5,1.5l-0.2,1h-4.8l-0.3-2.7c0-0.3-0.1-0.7-0.1-1.1
		c0-0.5,0.1-0.9,0.3-1.2l0.2-0.4c0-0.1,0.1-0.1,0.1-0.2c0-0.1-0.1-0.1-0.2-0.1h-0.7v-1.8h2.2c0.1,0.1,0.1,0.4,0.1,0.7v0.5
		c0,0.3,0,0.5-0.1,0.6h-0.5c-0.3,0-0.4,0.1-0.6,0.2c-0.2,0.2-0.3,0.7-0.3,1.4c0,0.5,0.1,1,0.2,1.6l0.1,0.6h3.4c0.3,0,0.6,0,0.7-0.1
		c0.1-0.1,0.3-0.3,0.4-0.5c0.2-0.5,0.3-0.9,0.3-1.2c0-0.6-0.1-1-0.4-1.3c-0.3-0.4-0.7-0.6-1.3-0.6c-0.4,0-0.7,0.1-1,0.4
		c-0.3,0.3-0.5,0.7-0.7,1.3h-0.4c0.1-0.8,0.3-1.5,0.7-2.3c0.4-0.9,1-1.3,1.7-1.3c0.4,0,0.7,0.1,0.9,0.2c0.3,0.2,0.5,0.4,0.7,0.7
		C104,175.4,104.2,176,104.2,176.7L104.2,176.7z"/>
	<path class="st0" d="M105.8,177.7c-0.3,0.4-0.4,0.8-0.4,1.1c0,0.4,0.1,1,0.3,1.7l-0.7,1.1h-0.3l0-2.3c0-0.6,0.2-1.1,0.5-1.5
		l0.3-0.4L105.8,177.7z M110.5,175.5c0,0.2-0.1,0.4-0.2,0.6l-0.1,0.2c-0.1,0.3-0.2,0.6-0.2,1c0,0.2,0.1,0.9,0.3,2l0.2,1.1l-0.7,1.1
		h-0.3l-0.1-3.5c0-0.7,0.1-1.2,0.3-1.7l0.1-0.2c0.1-0.1,0.1-0.2,0.1-0.3c0-0.1-0.1-0.2-0.3-0.2h-5.1v-1.8h6V175.5z"/>
	<path class="st0" d="M117.1,178.2c0,0.6,0,1.7-0.1,3.4h-0.4l-0.1-3.2c0-1.1-0.1-1.7-0.2-2c-0.1-0.3-0.5-0.5-1-0.5h-1v-1.8h2.6
		c0.1,0.3,0.2,0.6,0.2,1V178.2z"/>
	<path class="st0" d="M123.1,178.2c0,1.4,0,2.6-0.1,3.3h-0.4l-0.1-3.6c0-0.9-0.1-1.5-0.3-1.7c-0.2-0.2-0.6-0.4-1.3-0.4h-3.3v-1.8
		h4.9c0.4,0.3,0.6,1,0.6,2V178.2z"/>
	<path class="st0" d="M129.4,177.3v0.8c0,0.9-0.2,1.7-0.5,2.7l-0.3,0.8h-4.9v-1.9h3.6c1.1,0,1.6-0.6,1.6-1.8c0-1-0.3-1.7-0.8-1.9
		c-0.2-0.1-0.4-0.1-0.7-0.1h-3.7v-1.8h5C129.1,174.7,129.4,175.8,129.4,177.3"/>
	<path class="st0" d="M132.5,175.9h-0.4c-0.2,0-0.3,0.1-0.5,0.4l-0.1,0.1c-0.2,0.3-0.3,0.7-0.3,1.3c0,0.2,0.1,0.5,0.2,1.1
		c0.1,0.5,0.2,1,0.3,1.3l0.1,0.4l-0.5,1.1H131l-0.3-2.5c-0.1-0.5-0.1-1-0.1-1.5c0-0.4,0.2-0.8,0.5-1.2l0.2-0.3
		c0.1-0.1,0.1-0.2,0.1-0.2c0-0.1-0.1-0.1-0.2-0.1h-1.4v-1.8h2.7V175.9z"/>
	<path class="st0" d="M138.5,176.4c0,0.5-0.1,0.9-0.4,1.3c-0.2,0.3-0.5,0.6-1,1l-1.5,1.1c-0.2,0.1-0.3,0.3-0.3,0.5
		c0,0.2,0.1,0.4,0.4,0.5l-0.6,0.8l-0.1,0c-0.4-0.1-0.6-0.4-0.6-0.8c0-0.1,0-0.3,0.1-0.4c0.2-0.3,0.4-0.6,0.8-0.8l1.5-1.1
		c0.5-0.4,0.8-0.8,0.8-1.3c0-0.8-0.4-1.2-1.3-1.2h-3.5v-1.4c0-0.7,0.1-1.4,0.4-1.9l0.3-0.6c0-0.1,0.1-0.2,0.1-0.3
		c0-0.2-0.1-0.4-0.4-0.4h-0.5v-1.1h1.2c0.2,0.2,0.3,0.4,0.3,0.7v0.1c0,0.2-0.1,0.5-0.2,0.8l-0.5,1c-0.1,0.2-0.2,0.5-0.2,0.7
		c0,0.3,0.1,0.5,0.4,0.5h4.4c0.2,0.4,0.3,0.7,0.3,1.2V176.4z"/>
	<path class="st0" d="M141.7,178.2c0,0.6,0,1.7-0.1,3.4h-0.4l-0.1-3.2c0-1.1-0.1-1.7-0.2-2c-0.1-0.3-0.5-0.5-1-0.5h-1v-1.8h2.6
		c0.1,0.3,0.2,0.6,0.2,1V178.2z"/>
	<path class="st0" d="M148.2,178.2c0,0.6,0,1.7-0.1,3.4h-0.4l-0.1-3.2c0-1.1-0.1-1.7-0.2-2c-0.1-0.3-0.5-0.5-1-0.5h-1v-1.8h2.6
		c0.1,0.3,0.2,0.6,0.2,1V178.2z"/>
	<path class="st0" d="M155.3,178.8l-0.2,2.7h-4.2v-1.9h3.3c0.5,0,0.8-0.5,0.8-1.4c0-0.9-0.3-1.6-0.9-1.9c-0.4-0.2-0.9-0.3-1.6-0.3
		c-0.7,0-1.3,0.3-1.8,0.9c-0.3,0.4-0.6,0.9-0.7,1.4c-0.1,0.5-0.2,1-0.2,1.6v1.7h-0.5c0-0.3,0-0.9,0-1.9c0-0.4,0-0.7,0.1-1.1
		c0.1-0.5,0.2-0.9,0.4-1.2c0.2-0.3,0.4-0.7,0.7-1c0.1-0.1,0.1-0.1,0.1-0.2c0-0.2-0.1-0.3-0.3-0.3h-1.2v-1.8h2.2
		c0.1,0.2,0.2,0.4,0.2,0.7v0.3c0,0.2,0,0.4-0.1,0.5c0,0.1,0,0.2,0.1,0.2c0,0,0.1,0,0.1,0c0.4-0.2,0.7-0.4,0.8-0.5
		c0.2-0.3,0.4-0.7,0.5-1.4h0.1c0.5,0,1.1,0.3,1.6,0.8c0.6,0.6,0.9,1.6,0.9,3.1C155.3,178.1,155.3,178.4,155.3,178.8"/>
	<path class="st0" d="M163.3,175.6c0,0.2-0.1,0.4-0.2,0.6c-0.1,0.2-0.2,0.3-0.3,0.5l-0.4,0.6c-0.5,0.8-0.9,1.8-1.1,3.1l-0.2,1.1
		h-4.5l-0.3-2.7c-0.1-0.6-0.1-0.9-0.1-1.1c0-0.7,0.2-1.2,0.5-1.5c0.1-0.1,0.1-0.1,0.1-0.2c0-0.1-0.1-0.1-0.2-0.1h-0.6v-1.8h2.2v1.8
		h-0.3c-0.2,0-0.4,0.1-0.6,0.2c-0.2,0.1-0.3,0.3-0.4,0.6c0,0.2-0.1,0.5-0.1,0.9c0,0.5,0.1,1.1,0.2,1.6l0.1,0.5h0.2
		c0.1,0,0.3-0.2,0.5-0.5l1.4-2.7c0.1-0.1,0.1-0.2,0.1-0.3c0-0.1-0.1-0.2-0.3-0.2h-0.4v-1.8h2.1v1.8h-0.5c-0.2,0-0.3,0.1-0.5,0.4
		l-1.5,3c0,0.1-0.1,0.2-0.1,0.2c0,0.1,0.1,0.2,0.2,0.2h2.3l0.4-0.9c0.5-1,0.9-1.7,1.2-2.1l0.2-0.3c0.1-0.1,0.1-0.2,0.1-0.3
		c0-0.2-0.1-0.2-0.4-0.2h-1.1v-1.8h2c0.1,0.2,0.1,0.4,0.1,0.8V175.6z"/>
	<path class="st0" d="M172.5,176.4c0,0.5-0.1,0.9-0.4,1.3c-0.2,0.3-0.5,0.6-1,1l-1.5,1.1c-0.2,0.1-0.3,0.3-0.3,0.5
		c0,0.2,0.1,0.4,0.4,0.5l-0.6,0.8l-0.1,0c-0.4-0.1-0.6-0.4-0.6-0.8c0-0.1,0-0.3,0.1-0.4c0.2-0.3,0.4-0.6,0.8-0.8l1.5-1.1
		c0.5-0.4,0.8-0.8,0.8-1.3c0-0.8-0.4-1.2-1.3-1.2h-3.5v-1.4c0-0.7,0.1-1.4,0.4-1.9l0.3-0.6c0-0.1,0.1-0.2,0.1-0.3
		c0-0.2-0.1-0.4-0.4-0.4h-0.5v-1.1h1.2c0.2,0.2,0.3,0.4,0.3,0.7v0.1c0,0.2-0.1,0.5-0.2,0.8l-0.5,1c-0.1,0.2-0.2,0.5-0.2,0.7
		c0,0.3,0.1,0.5,0.4,0.5h4.4c0.2,0.4,0.3,0.7,0.3,1.2V176.4z"/>
	<path class="st0" d="M179.2,175.3c0,0.3-0.1,0.7-0.3,1l-0.3,0.5c-0.5,0.7-0.8,1.7-1,2.9l-0.1,0.8c-0.1,0.4-0.2,0.6-0.4,0.7l-4,1.8
		v-1.9l2.1-0.8c0.2-0.1,0.3-0.3,0.2-0.5l-1.4-3.5c-0.1-0.2-0.1-0.4-0.2-0.4c0,0-0.1-0.1-0.2-0.1H173v-1.8h2.6v1.8h-0.9
		c-0.2,0-0.2,0.1-0.1,0.4l1.3,3.4c0.1,0.2,0.1,0.3,0.2,0.3c0,0,0.1,0,0.2,0l0.3-0.2c0.2-0.1,0.3-0.2,0.3-0.4l0.1-0.4
		c0.3-1,0.8-1.8,1.3-2.6c0.1-0.1,0.1-0.2,0.1-0.2c0-0.1-0.1-0.2-0.3-0.2h-1.6v-1.8h2.5c0.1,0.3,0.1,0.5,0.1,0.7V175.3z"/>
	<path class="st0" d="M84.6,187.4c0,0.8-0.4,1.5-1.2,2.1l-0.4,0.4l-0.2-0.3c0.1-0.1,0.3-0.2,0.5-0.4c0.4-0.4,0.5-0.7,0.5-0.9
		c0-0.4-0.2-0.6-0.7-0.6h-1.5v-2.4h2.7c0.2,0.3,0.3,0.6,0.3,0.9c0,0.1,0,0.4,0,0.9V187.4z"/>
	<path class="st0" d="M90.6,189.3c0,0.5-0.1,1-0.2,1.6c-0.1,0.5-0.2,0.9-0.4,1.2l-0.2,0.5h-0.2h-1.3H85v-2.4h3.9
		c0.5,0,0.8-0.1,1-0.3c0.2-0.2,0.2-0.5,0.2-0.9v0c0-0.4-0.1-0.7-0.2-0.9c-0.2-0.3-0.5-0.4-1.1-0.4h-3.9v-2.4h5.2
		c0.4,0.7,0.5,1.7,0.5,3.1V189.3z"/>
	<path class="st0" d="M96.9,187.6h-0.4c-0.2,0-0.4,0.1-0.5,0.4l-0.1,0.1c-0.1,0.2-0.1,0.5-0.1,0.9c0,0.2,0,0.5,0.1,1
		c0.1,0.5,0.2,0.9,0.2,1.1l0.2,0.4l-1,1.2h-0.3l-0.1-2.2c0-0.8,0.1-1.5,0.4-2.2l0.1-0.3c0-0.1,0-0.1,0-0.2c0-0.2-0.1-0.3-0.3-0.3H91
		v-2.4h5.9V187.6z"/>
	<path class="st0" d="M102.8,188.1c0,2-0.1,3.5-0.2,4.6h-0.4l0-3.1c0-0.9-0.1-1.4-0.2-1.6c-0.2-0.2-0.6-0.3-1.3-0.3h-3.4v-2.4h4.9
		c0.2,0.2,0.3,0.3,0.4,0.4c0.1,0.2,0.2,0.7,0.2,1.2V188.1z"/>
	<path class="st0" d="M109.9,190l-0.2,2.7h-4.3v-2.4h3.3c0.6,0,0.8-0.3,0.8-0.8c0-0.5-0.2-0.9-0.7-1.3c-0.4-0.3-1-0.4-1.8-0.4
		c-0.7,0-1.3,0.3-1.8,0.8c-0.3,0.4-0.6,0.8-0.7,1.3c-0.1,0.4-0.2,1-0.2,1.6v1.2h-0.5c0-0.3,0-0.7,0-1.4c0-0.5,0-1,0.1-1.2
		c0.1-0.4,0.2-0.7,0.4-1c0.2-0.3,0.4-0.7,0.7-1c0-0.1,0.1-0.1,0.1-0.2c0-0.2-0.1-0.2-0.3-0.2h-1.2v-2.4h2.4c0.1,0.2,0.2,0.4,0.2,0.8
		v0.6c0,0.3-0.1,0.5-0.2,0.7c-0.1,0.1-0.1,0.2,0,0.2c0,0,0.1,0,0.1,0c0.3-0.2,0.6-0.4,0.7-0.7c0.2-0.4,0.4-0.9,0.4-1.7h0.2
		c0.7,0,1.3,0.2,1.7,0.7c0.6,0.6,0.9,1.6,0.9,3.1C109.9,189.3,109.9,189.6,109.9,190"/>
	<path class="st0" d="M116.4,186.8c0,0.3,0,0.6-0.1,0.8c-0.2,0.6-0.5,1.1-1,1.5l-0.6,0.5l-0.2-0.3c0.4-0.3,0.7-0.5,0.8-0.7
		c0.3-0.3,0.4-0.6,0.4-0.8c0-0.2-0.1-0.4-0.2-0.5c-0.1-0.1-0.3-0.2-0.5-0.2h-1.4v-1.8h2.5C116.3,185.5,116.4,186,116.4,186.8
		L116.4,186.8z"/>
	<path class="st0" d="M122.7,192.7h-6.1v-1.9h4c0.2,0,0.3-0.1,0.4-0.2c0.3-0.4,0.5-0.9,0.5-1.5c0-1-0.1-1.5-0.2-1.7
		c-0.2-0.3-0.4-0.4-0.7-0.4h-4v-1.8h5.1c0.2,0.4,0.4,1,0.4,1.8v1.1c0,0.3,0,0.6-0.1,0.9c-0.1,0.5-0.3,1-0.6,1.5c0,0.1-0.1,0.1,0,0.2
		c0,0.1,0.1,0.1,0.1,0.1h1.1V192.7z"/>
	<path class="st0" d="M128.5,189.4c0,1.4,0,2.6-0.1,3.3H128l-0.1-3.6c0-0.9-0.1-1.5-0.3-1.7c-0.2-0.2-0.6-0.4-1.3-0.4H123v-1.8h4.9
		c0.4,0.3,0.6,1,0.6,2V189.4z"/>
	<path class="st0" d="M133.8,188.3c-0.4,0.3-0.6,0.8-0.6,1.5v1c0,1.2,0.1,2.2,0.3,2.9l0.1,0.4l-0.8,1.1h-0.3l-0.1-5.1
		c0-0.8,0.3-1.4,0.9-1.9l0.2-0.2L133.8,188.3z M138.3,187.1v0.8c0,0.9-0.5,1.6-1.4,2.2l-1.5,0.9c-0.2,0.1-0.3,0.3-0.3,0.5
		c0,0.2,0.1,0.4,0.3,0.4l-0.7,0.7l-0.1-0.1c-0.3-0.1-0.4-0.4-0.4-0.7c0-0.2,0-0.3,0.1-0.4c0.2-0.3,0.5-0.6,1-0.9l1.3-0.8
		c0.6-0.3,0.8-0.8,0.8-1.4c0-0.9-0.5-1.4-1.4-1.4h-3.7v-1.8h5.5C138.1,185.6,138.3,186.2,138.3,187.1"/>
	<path class="st0" d="M142.8,185.6c-0.1,0.2-0.2,0.5-0.5,0.9c-0.4,0.6-0.9,1.2-1.5,1.8l-0.2-0.2c0.4-0.8,0.7-1.3,0.7-1.5
		c0-0.1,0-0.1,0-0.2c0-0.1,0-0.3-0.1-0.6c-0.1-0.3-0.1-0.5-0.1-0.6c0.3-0.5,0.7-1,1.1-1.5c0.1,0.1,0.2,0.4,0.3,0.8
		c0.1,0.4,0.2,0.6,0.2,0.9C142.8,185.5,142.8,185.5,142.8,185.6 M140.6,185.6c-0.1,0.2-0.2,0.5-0.5,0.9c-0.4,0.6-0.9,1.2-1.5,1.8
		l-0.2-0.2c0.4-0.8,0.7-1.3,0.7-1.5c0-0.1,0-0.1,0-0.2c0-0.1,0-0.3-0.1-0.6c-0.1-0.3-0.1-0.5-0.1-0.6c0.3-0.5,0.7-1,1.1-1.5
		c0.1,0.1,0.2,0.4,0.3,0.8c0.1,0.4,0.2,0.6,0.2,0.9C140.6,185.5,140.6,185.5,140.6,185.6"/>
	<path class="st0" d="M144.6,188.8c-0.3,0.4-0.4,0.8-0.4,1.1c0,0.4,0.1,1,0.3,1.7l-0.7,1.1h-0.3l0-2.3c0-0.6,0.2-1.1,0.5-1.5
		l0.3-0.4L144.6,188.8z M149.3,186.7c0,0.2-0.1,0.4-0.2,0.6l-0.1,0.2c-0.1,0.3-0.2,0.6-0.2,1c0,0.2,0.1,0.9,0.3,2l0.2,1.1l-0.7,1.1
		h-0.3l-0.1-3.5c0-0.7,0.1-1.2,0.3-1.7l0.1-0.2c0.1-0.1,0.1-0.2,0.1-0.3c0-0.1-0.1-0.2-0.3-0.2h-5.1v-1.8h6V186.7z"/>
	<path class="st0" d="M155.3,189.4c0,1.4,0,2.6-0.1,3.3h-0.4l-0.1-3.6c0-0.9-0.1-1.5-0.3-1.7c-0.2-0.2-0.6-0.4-1.3-0.4h-3.3v-1.8
		h4.9c0.4,0.3,0.6,1,0.6,2V189.4z"/>
	<path class="st0" d="M157.1,188.8c-0.3,0.4-0.4,0.8-0.4,1.1c0,0.4,0.1,1,0.3,1.7l-0.7,1.1h-0.3l0-2.3c0-0.6,0.2-1.1,0.5-1.5
		l0.3-0.4L157.1,188.8z M161.8,186.7c0,0.2-0.1,0.4-0.2,0.6l-0.1,0.2c-0.1,0.3-0.2,0.6-0.2,1c0,0.2,0.1,0.9,0.3,2l0.2,1.1l-0.7,1.1
		h-0.3l-0.1-3.5c0-0.7,0.1-1.2,0.3-1.7l0.1-0.2c0.1-0.1,0.1-0.2,0.1-0.3c0-0.1-0.1-0.2-0.3-0.2h-5.1v-1.8h6V186.7z"/>
	<path class="st0" d="M171.3,187.6c0,0.5-0.1,0.9-0.4,1.3c-0.2,0.3-0.5,0.6-1,1l-1.5,1.1c-0.2,0.1-0.3,0.3-0.3,0.5
		c0,0.2,0.1,0.4,0.4,0.5l-0.6,0.8l-0.1,0c-0.4-0.1-0.6-0.4-0.6-0.8c0-0.1,0-0.3,0.1-0.4c0.2-0.3,0.4-0.6,0.8-0.8l1.5-1.1
		c0.5-0.4,0.8-0.8,0.8-1.3c0-0.8-0.4-1.2-1.3-1.2h-3.5v-1.4c0-0.7,0.1-1.4,0.4-1.9l0.3-0.6c0-0.1,0.1-0.2,0.1-0.3
		c0-0.2-0.1-0.4-0.4-0.4h-0.5v-1.1h1.2c0.2,0.2,0.3,0.4,0.3,0.7v0.1c0,0.2-0.1,0.5-0.2,0.8l-0.5,1c-0.1,0.2-0.2,0.5-0.2,0.7
		c0,0.3,0.1,0.5,0.4,0.5h4.4c0.2,0.4,0.3,0.7,0.3,1.2V187.6z"/>
	<path class="st0" d="M179.2,186.8c0,0.2-0.1,0.4-0.2,0.6c-0.1,0.2-0.2,0.3-0.3,0.5l-0.4,0.6c-0.5,0.8-0.9,1.8-1.1,3.1l-0.2,1.1
		h-4.5l-0.3-2.7c-0.1-0.6-0.1-0.9-0.1-1.1c0-0.7,0.2-1.2,0.5-1.5c0.1-0.1,0.1-0.1,0.1-0.2c0-0.1-0.1-0.1-0.2-0.1h-0.6v-1.8h2.2v1.8
		h-0.3c-0.2,0-0.4,0.1-0.6,0.2c-0.2,0.1-0.3,0.3-0.4,0.6c0,0.2-0.1,0.5-0.1,0.9c0,0.5,0.1,1.1,0.2,1.6l0.1,0.5h0.2
		c0.1,0,0.3-0.2,0.5-0.5l1.4-2.7c0.1-0.1,0.1-0.2,0.1-0.3c0-0.1-0.1-0.2-0.3-0.2h-0.4v-1.8h2.1v1.8h-0.5c-0.2,0-0.3,0.1-0.5,0.4
		l-1.5,3c0,0.1-0.1,0.2-0.1,0.2c0,0.1,0.1,0.2,0.2,0.2h2.3l0.4-0.9c0.5-1,0.9-1.7,1.2-2.1l0.2-0.3c0.1-0.1,0.1-0.2,0.1-0.3
		c0-0.2-0.1-0.2-0.4-0.2H177v-1.8h2c0.1,0.2,0.1,0.4,0.1,0.8V186.8z"/>
	<path class="st0" d="M101.7,202.9l-1.1,1.2h0l-3.6-4.1c-0.1-0.1-0.2-0.2-0.3-0.2c-0.1,0-0.2,0-0.3,0.1c-0.1,0.1-0.3,0.3-0.4,0.5
		c-0.1,0.2-0.2,0.4-0.2,0.6c0,0.7,0.3,1.1,1,1.1h0.4v1.8h-2.1v-2.3c0-0.8,0.2-1.3,0.7-1.8l0.4-0.4l-1.5-1.8v-0.1l1.2-1.2h0l3,3.5
		c0.1,0.1,0.2,0.2,0.4,0.2c0.2,0,0.4-0.1,0.5-0.2c0.5-0.4,0.7-0.8,0.7-1.1c0-0.3-0.1-0.4-0.4-0.4H99v-1.8h2.3c0.1,0.3,0.2,0.6,0.2,1
		v0.2c0,0.5-0.2,0.9-0.5,1.4c-0.3,0.4-0.6,0.7-0.9,1l-0.5,0.4L101.7,202.9z"/>
	<path class="st0" d="M105.9,196.8c-0.1,0.2-0.2,0.5-0.5,0.9c-0.4,0.6-0.9,1.2-1.5,1.8l-0.2-0.2c0.4-0.8,0.7-1.3,0.7-1.5
		c0-0.1,0-0.1,0-0.2c0-0.1,0-0.3-0.1-0.6c-0.1-0.3-0.1-0.5-0.1-0.6c0.3-0.5,0.7-1,1.1-1.5c0.1,0.1,0.2,0.4,0.3,0.8
		c0.1,0.4,0.2,0.6,0.2,0.9C106,196.6,106,196.7,105.9,196.8 M103.7,196.8c-0.1,0.2-0.2,0.5-0.5,0.9c-0.4,0.6-0.9,1.2-1.5,1.8
		l-0.2-0.2c0.4-0.8,0.7-1.3,0.7-1.5c0-0.1,0-0.1,0-0.2c0-0.1,0-0.3-0.1-0.6c-0.1-0.3-0.1-0.5-0.1-0.6c0.3-0.5,0.7-1,1.1-1.5
		c0.1,0.1,0.2,0.4,0.3,0.8c0.1,0.4,0.2,0.6,0.2,0.9C103.8,196.6,103.8,196.7,103.7,196.8"/>
	<path class="st0" d="M112.7,197.7c0,0.3-0.1,0.7-0.3,1l-0.3,0.5c-0.5,0.7-0.8,1.7-1,2.9l-0.1,0.8c-0.1,0.4-0.2,0.6-0.4,0.7l-4,1.8
		v-1.9l2.1-0.8c0.2-0.1,0.3-0.3,0.2-0.5l-1.4-3.5c-0.1-0.2-0.1-0.4-0.2-0.4c0,0-0.1-0.1-0.2-0.1h-0.6v-1.8h2.6v1.8h-0.9
		c-0.2,0-0.2,0.1-0.1,0.4l1.3,3.4c0.1,0.2,0.1,0.3,0.2,0.3c0,0,0.1,0,0.2,0l0.3-0.2c0.2-0.1,0.3-0.2,0.3-0.4l0.1-0.4
		c0.3-1,0.8-1.8,1.3-2.6c0.1-0.1,0.1-0.2,0.1-0.2c0-0.1-0.1-0.2-0.3-0.2h-1.6v-1.8h2.5c0.1,0.3,0.1,0.5,0.1,0.7V197.7z"/>
	<path class="st0" d="M115.9,198c0,0.3,0,0.6-0.1,0.8c-0.2,0.6-0.5,1.1-1,1.5l-0.6,0.5l-0.2-0.3c0.4-0.3,0.7-0.5,0.8-0.7
		c0.3-0.3,0.4-0.6,0.4-0.8c0-0.2-0.1-0.4-0.2-0.5c-0.1-0.1-0.3-0.2-0.5-0.2H113v-1.8h2.5C115.8,196.7,115.9,197.2,115.9,198
		L115.9,198z"/>
	<path class="st0" d="M118.9,198.2h-0.4c-0.2,0-0.3,0.1-0.5,0.4l-0.1,0.1c-0.2,0.3-0.3,0.7-0.3,1.3c0,0.2,0.1,0.5,0.2,1.1
		c0.1,0.6,0.2,1,0.3,1.3l0.1,0.4l-0.5,1.1h-0.3l-0.3-2.5c-0.1-0.5-0.1-1-0.1-1.5c0-0.4,0.2-0.8,0.5-1.2l0.2-0.3
		c0.1-0.1,0.1-0.2,0.1-0.2c0-0.1-0.1-0.1-0.2-0.1h-1.4v-1.8h2.7V198.2z"/>
	<path class="st0" d="M132.7,203.8h-3.6v-2.4h2.7l-0.1-0.3c-0.1-0.2-0.1-0.5-0.1-0.7c0-0.2,0-0.4,0.1-0.7l0.1-0.3c0-0.1,0-0.1,0-0.2
		c0-0.3-0.1-0.4-0.4-0.4h-1.8v-2.4h2.6c0.2,0.3,0.3,0.7,0.3,1.2v0.2c0,0.1-0.1,0.5-0.2,1.4l-0.1,0.3c0,0,0,0.3,0,0.8
		c0,0.2,0.1,0.5,0.2,0.8l0.4,0.8V203.8z"/>
	<path class="st0" d="M138.6,199.3c0,2-0.1,3.5-0.2,4.6H138l0-3.1c0-0.9-0.1-1.4-0.2-1.6c-0.2-0.2-0.6-0.3-1.3-0.3h-3.4v-2.4h4.9
		c0.2,0.2,0.3,0.3,0.4,0.4c0.1,0.2,0.2,0.7,0.2,1.2V199.3z"/>
	<path class="st0" d="M141.8,200.5c0,0.6,0,1.7-0.1,3.4h-0.4l-0.1-2.8c0-1-0.1-1.7-0.2-1.9c-0.1-0.3-0.5-0.4-1.1-0.4H139v-2.4h2.6
		c0.1,0.3,0.2,0.6,0.2,1V200.5z"/>
	<path class="st0" d="M148.4,203.8h-6v-2.4h4.1c0.2,0,0.3-0.1,0.4-0.2c0.3-0.4,0.5-0.9,0.5-1.2c0-0.3-0.1-0.6-0.2-0.8
		c-0.2-0.2-0.4-0.4-0.9-0.4h-3.8v-2.4h5.1c0.3,0.4,0.4,1,0.4,1.8v0.8c0,0.2,0,0.5-0.1,0.8c0,0.3-0.2,0.7-0.5,1.3
		c-0.1,0.2-0.1,0.3,0.1,0.3h1V203.8z"/>
	<path class="st0" d="M154.6,198.8h-0.4c-0.2,0-0.4,0.1-0.5,0.4l-0.1,0.1c-0.1,0.2-0.1,0.5-0.1,0.9c0,0.2,0,0.5,0.1,1
		c0.1,0.5,0.2,0.9,0.2,1.1l0.2,0.4l-1,1.2h-0.3l-0.1-2.2c0-0.8,0.1-1.5,0.4-2.2l0.1-0.3c0-0.1,0-0.1,0-0.2c0-0.2-0.1-0.3-0.3-0.3
		h-4.3v-2.4h5.9V198.8z"/>
	<path class="st0" d="M158.6,203.8H155v-2.4h2.7l-0.1-0.3c-0.1-0.2-0.1-0.5-0.1-0.7c0-0.2,0-0.4,0.1-0.7l0.1-0.3c0-0.1,0-0.1,0-0.2
		c0-0.3-0.1-0.4-0.4-0.4h-1.8v-2.4h2.6c0.2,0.3,0.3,0.7,0.3,1.2v0.2c0,0.1-0.1,0.5-0.2,1.4l-0.1,0.3c0,0,0,0.3,0,0.8
		c0,0.2,0.1,0.5,0.2,0.8l0.4,0.8V203.8z"/>
	<path class="st0" d="M165.6,201.1l-0.2,2.7H161v-2.4h3.3c0.6,0,0.8-0.3,0.8-0.8c0-0.5-0.2-0.9-0.7-1.3c-0.4-0.3-1-0.4-1.8-0.4
		c-0.7,0-1.3,0.3-1.8,0.8c-0.3,0.4-0.6,0.8-0.7,1.3c-0.1,0.4-0.2,1-0.2,1.6v1.2h-0.5c0-0.3,0-0.7,0-1.4c0-0.5,0-1,0.1-1.2
		c0.1-0.4,0.2-0.7,0.4-1c0.2-0.3,0.4-0.7,0.7-1c0-0.1,0.1-0.1,0.1-0.2c0-0.2-0.1-0.2-0.3-0.2h-1.2v-2.4h2.4c0.1,0.2,0.2,0.4,0.2,0.8
		v0.6c0,0.3-0.1,0.5-0.2,0.7c-0.1,0.1-0.1,0.2,0,0.2c0,0,0.1,0,0.1,0c0.3-0.2,0.6-0.4,0.7-0.7c0.2-0.4,0.3-0.9,0.4-1.7h0.2
		c0.7,0,1.3,0.2,1.7,0.7c0.6,0.6,0.9,1.6,0.9,3.1C165.6,200.4,165.6,200.8,165.6,201.1"/>
	<path class="st1" d="M92.6,218c-0.2-0.1-0.4-0.2-0.6-0.2C92.2,217.8,92.4,217.9,92.6,218"/>
	<path class="st1" d="M19.5,104.2l0.3-0.1c0,0,0,0,0,0C19.7,104.2,19.6,104.2,19.5,104.2"/>
</g>
<polygon class="st1" points="209,143.3 203.3,147.8 203.5,160.9 209,156.3 "/>
<g>
	<path class="st1" d="M218.6,93.4C218.6,93.4,218.6,93.4,218.6,93.4C218.6,93.4,218.6,93.4,218.6,93.4
		C218.6,93.4,218.6,93.4,218.6,93.4 M217,65.1C217,65.1,217,65.1,217,65.1C217,65.1,217,65.1,217,65.1C217,65.1,217,65.1,217,65.1
		C217,65.1,217,65.1,217,65.1C217,65.1,217,65.1,217,65.1C217,65.1,217,65.1,217,65.1C217,65.1,217,65.1,217,65.1 M231,140.5
		c0-0.8-0.1-1.5-0.2-2.2c0,0,0,0,0-0.1c-0.5-7.5-2.6-9.9-7.4-10.6c0.1,0,0.1-0.1,0.2-0.2c0,0,0-0.1,0-0.1c0-0.2-0.1-0.4-0.3-0.4
		h-0.1c0,0-0.8-0.2-1-0.8c-0.1-0.5-0.1-0.9-0.6-1c-0.2-0.1-0.4-0.3-0.5-0.6c-0.1-0.5-0.1-1-0.7-1h0.1v-1.4c1.3-0.3,2.1-1.2,1-2.9
		c-1.2-1.8-1.3-5.3-1.3-6.3c0.3-0.1,0.5-0.3,0.5-0.7v-0.6c0-0.4-0.3-0.7-0.7-0.7h-0.2v-1.9h0.9c0.8,0,0.7-0.5,0.9-1
		c0.1-0.3,0.4-0.5,0.6-0.6c0.6-0.1,0.6-0.5,0.8-1c0.2-0.5,1.2-0.8,1.2-0.8h0.2c0.2,0,0.3-0.1,0.3-0.3c0,0,0-0.1,0-0.1
		c0-0.2-0.2-0.4-0.4-0.4h-4.5v-3h0.1c0.6,0,1.1-0.5,1.1-1.1v-0.3c0.6-0.2,1.1-0.5,1.3-1.1c0.6-1.6-0.2-2.5-0.9-4.3
		c-0.5-1.3,0.1-2.3,0.5-2.8h0.8c0.3,0,0.5-0.2,0.6-0.4c0,0,0-0.1,0-0.1c0-0.3-0.3-0.6-0.6-0.6h-2.4V72.2v-0.6v-0.7v-0.8v-2.8V66
		c0.1,0.3,0.1,0.6,0.3,0.8c0,0,0,0,0,0c0.1,0.2,0.4,0.1,0.4-0.1c0,0,0-0.1,0-0.1c0.1-0.5-0.1-0.8-0.3-1.2c0,0,0-0.1,0-0.1
		c-0.1-0.2-0.1-0.4,0-0.7c0-0.2,0.1-0.5,0.2-0.7c0-0.3,0-0.5-0.2-0.7c-0.1-0.1-0.3-0.2-0.5-0.3c-0.4-0.1-0.8,0-1.2,0.1
		c-0.1,0-0.2,0-0.3,0v-0.5c0.2,0,0.4-0.1,0.6-0.2c0.4-0.3,0.4-0.9,0.2-1.3c-0.2-0.5-0.5-1-0.7-1.5c-0.3-0.5-0.4-1.1-0.3-1.7
		c0-0.3,0.1-0.5,0.2-0.8c-0.1,0.1-0.2,0.2-0.3,0.3c-0.3,0.4-0.6,0.8-0.8,1.2c-0.2,0.4-0.4,0.9-0.4,1.4c-0.1,0.5-0.1,1,0,1.5
		c0.1,0.5,0.4,0.9,0.8,1c0.1,0,0.3,0.1,0.4,0.1V63c-0.2,0-0.4-0.1-0.6-0.1c-0.4-0.1-0.8-0.3-1.1-0.1c-0.2,0.2-0.3,0.5-0.4,0.8
		c0,0.1,0,0.1,0,0.2c0,0,0,0,0,0.1c0,0.2,0,0.5,0,0.7c0,0.2-0.1,0.5-0.1,0.7c-0.1,0.2,0,0.5,0.1,0.7c0.1,0.1,0.2,0.2,0.4,0.2v0.4
		v3.6v0.8v0.7v0.6v19.1H214c-0.3,0-0.6,0.3-0.6,0.6c0,0.1,0,0.1,0,0.1c0.1,0.2,0.3,0.4,0.6,0.4h0.8c0.3,0.4,0.7,1,0.7,1.9
		c0,0.3-0.1,0.6-0.2,0.9c-0.7,1.9-1.5,2.7-0.9,4.3c0.2,0.6,0.7,0.9,1.3,1.1v0.3c0,0.2,0,0.4,0.1,0.5c0.2,0.3,0.5,0.5,0.9,0.5h0.1
		v0.8v1.5v0.7h-4.5c-0.2,0-0.4,0.2-0.4,0.4c0,0,0,0.1,0,0.1c0,0.2,0.2,0.3,0.3,0.3h0.2c0,0,1,0.2,1.2,0.8c0.1,0.4,0.1,0.7,0.5,0.9
		c0.1,0,0.2,0.1,0.3,0.1c0.2,0.1,0.5,0.3,0.6,0.6c0.1,0.4,0.1,0.7,0.3,0.9c0.1,0.1,0.3,0.1,0.5,0.1h0.9v0.6v0.7v0.5h-0.2
		c-0.4,0-0.7,0.3-0.7,0.7v0.6c0,0.3,0.2,0.6,0.5,0.7c0,0.2,0,0.6,0,1c-0.1,1.5-0.3,3.9-1.3,5.3c-0.3,0.4-0.4,0.8-0.5,1.1
		c-0.1,0.9,0.5,1.5,1.5,1.7v0.3v1h0.1c-0.2,0-0.3,0.1-0.4,0.1c-0.2,0.2-0.2,0.5-0.3,0.9c-0.1,0.3-0.3,0.5-0.5,0.6
		c-0.1,0-0.2,0.1-0.2,0.1c-0.3,0.2-0.3,0.5-0.4,0.9c-0.2,0.5-1,0.8-1,0.8h-0.1c-0.2,0-0.3,0.2-0.3,0.4c0,0,0,0.1,0,0.1
		c0,0,0,0.1,0.1,0.1c-6,0.1-12.2-0.1-15.7-3c1.5,3.4,3,7.6,0.5,11.8l14.8-0.1c9.6,0,13.3-1.2,13.9,8.1c0.1,0.7,0.1,1.4,0.1,2.1
		c0,0.2,0,0.3,0,0.5c0,1.5-0.2,3.1-0.5,4.8c-0.1,0.6-0.2,1.2-0.4,1.7c-0.7,3.9-1.7,7-2.5,9.2c-0.2,0.5-0.4,0.9-0.6,1.4
		c-0.1,0.3-0.3,0.7-0.4,1c-0.1,0.2-0.1,0.3-0.2,0.5c-2.3,5-5.1,9.8-8.1,14.4C196,207,165.1,225,130.1,225
		c-22.1,0-42.6-7.2-59.2-19.3c-0.8-0.6-1.6-1.2-2.3-1.9c-0.1-0.1-0.1-0.1-0.2-0.2c-1.8-1.5-3.5-3-5.2-4.6c-0.1-0.1-0.3-0.2-0.4-0.4
		c-0.7-0.6-1.3-1.3-2-2c-0.1-0.1-0.2-0.2-0.3-0.3c-1.5-1.5-3-3.1-4.4-4.7c-0.2-0.2-0.4-0.5-0.6-0.8c-0.9-1-1.8-2.1-2.7-3.2
		c0,0,0.1,0,0.1-0.1c-7.8-9.9-13.6-20.9-17.4-32.3c-0.4-1.3-0.8-2.6-1.2-3.9c-1.6-6-1.1-12.1,1.1-17.9c0-0.1,0.1-0.2,0.2-0.4
		c0.6-1.8,1.5-3.2,2.3-4.3c0.2-0.3,0.4-0.7,0.7-1c0.9-1,1.6-1.6,1.6-1.6c0.1-0.1,0.3-0.1,0.4,0c0.1,0.1,0.2,0.2,0.1,0.4
		c-0.5,0.8-0.8,1.6-1.1,2.4c-0.3,0.8-0.6,1.6-0.8,2.4c-1.1,4.6-0.4,8.6,0.4,10.9c0,0.1,0.1,0.1,0.2,0.1c0.1,0,0.2-0.1,0.2-0.2
		c0.1-3.2,1.2-5.5,2.5-7.2c0.4-0.5,0.8-1,1.3-1.4c0.7-0.7,1.4-1.2,2-1.6c2.5-1.6,5.2-2.2,6.9-2.2c0.1,0,0.2-0.1,0.2-0.1
		c0-0.1,0-0.2-0.1-0.2c-2.7-2-6.1-1.2-6.3-1.1c-0.1,0-0.3,0-0.3-0.1c-0.1-0.1-0.1-0.2,0-0.3c3-3.7,6.9-5.5,11-5
		c2.8,0.3,5.6,1.8,7.2,3.9c0.1,0.1,0.1,0.1,0.2,0.1c0.1,0,0.1-0.1,0.1-0.2c0.2-3.6-1.7-7.3-5-9.8c-4.2-3.2-9.7-4.1-15.1-2.4
		c-7.2,2.2-11.1,8-13.2,12.9c-0.1,0.1-0.1,0.2-0.2,0.4c-0.1,0.2-0.1,0.3-0.2,0.5c-0.8,2-1.3,3.7-1.5,5c0,0.1-0.2,0.2-0.3,0.2
		c-0.2,0-0.3-0.1-0.3-0.2c-0.5-3,0.1-6.3,1.2-9.8c0.1-0.2,0.1-0.4,0.2-0.6c0.4-1.1,0.8-2.2,1.2-3.3c1.2-3,2.7-6.1,4.3-9.3
		c3.2-6.5,6.5-13.3,7.9-20.1c1.7-8.2-0.5-16.7-6.1-23.3c-0.1-0.1-0.3-0.3-0.4-0.4c-0.2-0.3-0.5-0.5-0.8-0.8
		c-2.6-2.6-5.4-4.3-8.2-5.3c-4.3-1.6-8.4-1.5-10.7-1c-0.1,0-0.1,0.1-0.2,0.2c0,0.1,0,0.2,0.1,0.2c3.6,1.6,6.3,3.8,8.1,6.7
		c0.3,0.5,0.6,1.1,0.9,1.6c3.7,8.1-0.2,18.1-2,22c0,0.1-0.2,0.2-0.3,0.2c-0.1,0-0.2-0.1-0.3-0.2c-0.9-2.4-2.2-4.1-3.7-5.4
		c-1.6-1.4-3.3-2.3-4.5-2.8c-0.1,0-0.2,0-0.2,0C15,82,15,82.1,15,82.2c3.7,5.3,2.7,12.9,1.6,20.9c-1.2,8.8-2.4,17.8,1.8,25.3
		c0,0.1,0.1,0.1,0.2,0.1c0.1,0,0.2-0.1,0.2-0.2c-0.1-2.1-0.1-4.3,0-6.3c0.9-12.7,6.4-23.6,10-29.4c0.2-0.4,0.5-0.7,0.7-1.1
		c1.3-2.1,2.3-3.3,2.3-3.4c0.1-0.1,0.3-0.2,0.4-0.1c0.1,0.1,0.2,0.2,0.1,0.4c0,0-0.4,0.8-1,2.1c-1,1.7-1.9,3.5-2.9,5.5
		c-3.4,7.2-6.3,16.5-6.3,27.3c0,0.6,0,1.3,0,1.9c0,0.9,0.1,1.8,0.2,2.6c0.3,19.5,5.9,39.1,17.4,56.6c1.2,1.8,2.4,3.5,3.7,5.2
		c0.1,0.1,0.2,0.2,0.3,0.4c0.6,0.7,1.1,1.5,1.7,2.2c0.1,0.1,0.2,0.3,0.3,0.4c1.5,1.8,3,3.6,4.5,5.3c0.1,0.1,0.1,0.1,0.2,0.2
		c0.8,0.9,1.7,1.8,2.5,2.6c0.3,0.3,0.6,0.6,0.9,0.9c0.6,0.6,1.2,1.2,1.8,1.8c0.6,0.5,1.2,1.1,1.8,1.6c0.3,0.3,0.7,0.6,1,0.9
		c0.9,0.8,1.8,1.6,2.7,2.3c0,0,0,0,0.1,0.1c2,1.6,4,3.2,6.1,4.6c0.3,0.2,0.5,0.4,0.8,0.6c0.2,0.1,0.4,0.2,0.6,0.4
		c25.7,17.4,57.8,22.5,87.3,14.5c0,0,0,0,0-0.1c32.4-8.6,58.4-31.9,69.3-61.8c1.5-3.5,2.4-6.3,2.8-7.7c0.2-0.8,0.5-1.5,0.7-2.3
		c0.4-1.7,0.8-3.8,1.2-6.2C230.8,145.9,231.1,143.7,231,140.5"/>
	<path class="st1" d="M42.1,61.5c1.5,1.8,2.9,3.7,4,5.8C55.1,53.9,67.4,43,81.8,35.5c0.1-0.1,0.2-0.1,0.3-0.2c1-0.5,2-1,3-1.5
		c1.1-0.5,2.1-1,3.2-1.5c0.7-0.3,1.4-0.6,2.1-0.9c1.1-0.4,2.2-0.9,3.4-1.3c10.2-3.7,21.2-5.7,32.6-5.7c22.2,0,42.6,7.5,58.9,20V34
		c-16.9-11.4-37.1-18-58.9-18c-2.2,0-4.3,0.1-6.4,0.2c-0.2,0-0.3,0-0.5,0c-0.9,0.1-1.9,0.1-2.8,0.2c-0.2,0-0.4,0-0.5,0.1
		c-2.3,0.2-4.6,0.5-6.9,0.9c-0.1,0-0.2,0-0.3,0c-1.2,0.2-2.4,0.4-3.6,0.7c-0.4,0.1-0.8,0.2-1.2,0.3c-0.8,0.2-1.7,0.4-2.5,0.6
		c-0.8,0.2-1.5,0.4-2.3,0.6c-0.4,0.1-0.9,0.2-1.3,0.3c-1.2,0.3-2.3,0.7-3.4,1c0,0-0.1,0-0.1,0c-22.2,7-40.9,20.9-54,39.1
		c0.3,0.3,0.6,0.6,0.9,1C41.7,61.1,41.9,61.3,42.1,61.5"/>
	<path class="st1" d="M216.4,64.4C216.4,64.4,216.4,64.4,216.4,64.4C216.4,64.4,216.4,64.4,216.4,64.4
		C216.4,64.4,216.4,64.4,216.4,64.4C216.4,64.4,216.4,64.4,216.4,64.4"/>
	<polyline class="st1" points="216.4,64.4 216.4,64.4 216.4,64.4 	"/>
	<polyline class="st1" points="218,92.7 218,92.7 218,92.7 218,92.7 	"/>
</g>
</svg>
