<?xml version="1.0" encoding="utf-8"?>
<!-- Generator: Adobe Illustrator 25.0.0, SVG Export Plug-In . SVG Version: 6.00 Build 0)  -->
<svg version="1.1" id="Layer_1" xmlns="http://www.w3.org/2000/svg" xmlns:xlink="http://www.w3.org/1999/xlink" x="0px" y="0px"
	 viewBox="0 0 243 237" style="enable-background:new 0 0 243 237;" xml:space="preserve">
<style type="text/css">
	.st0{fill:#FFFFFF;}
</style>
<g>
	<g>
		<path class="st0" d="M123.7,199.7l-1.4,1.4l0,0l-3.4-4c-0.1-0.1-0.2-0.2-0.3-0.2c-0.1,0-0.2,0-0.3,0.1c-0.3,0.2-0.4,0.5-0.4,0.9
			c0,0.6,0.3,0.9,1,0.9h0.4v2.1h-2.1v-2.5c0-0.6,0.2-1.2,0.6-1.6l0.4-0.4l-1.4-1.6v-0.1l1.4-1.4l3,3.6c0.1,0.1,0.3,0.2,0.4,0.2
			s0.3-0.1,0.4-0.2c0.4-0.4,0.6-0.8,0.6-1c0-0.3-0.2-0.4-0.5-0.4H121v-2h2.3c0.1,0.3,0.2,0.7,0.2,1.2v0.2c0,0.4-0.1,0.8-0.3,1.2
			c-0.1,0.3-0.4,0.6-0.7,1l-0.5,0.5L123.7,199.7z"/>
	</g>
	<g>
		<path class="st0" d="M55.3,81.8c5.4,7.1,15.5-1.3,15.5,7.9c0,3.5-1.5,8.8-5.2,11.7c2.5-5.9,1.7-8-4.6-8c-2,0-4,0.3-5.5,0.3
			C58,90.2,57,85.8,55.3,81.8"/>
	</g>
	<g>
		<path class="st0" d="M68.7,118.6c3-3.1,3.1-4.6,4.1-9.3c9.3,3.8,13.3-1.2,13.3-8.3c0-7.6-2.4-7.3-11.4-7.3c2.3-2.9,1.6-8,0.1-11.3
			c1.3,1.3,2.7,2.7,7,2.7c6.2,0,6.9,3.5,6.9,10.2C88.7,113.1,84.4,119.8,68.7,118.6"/>
	</g>
	<g>
		<path class="st0" d="M100.9,85.4H126c-2.7,2.1-2.9,8.5-2.9,8.5h-5.2c-1.5,2.1,1,6.6,3.4,8.9c-1.4,1.5-4.3,5.7-4.3,5.7
			c-1-2.8-6.9-11.2-1.5-14.6C107.6,94,98,93.8,90.1,94c2.7-4.3,2.1-7.4,0-11.6C91.9,83.7,92.7,85.4,100.9,85.4"/>
	</g>
	<g>
		<path class="st0" d="M129.3,82.1c1.5,1.1,2.2,2.9,9.1,2.9c7.4,0,8.7,3.2,8.7,10.7c0,5.6-1.9,11.5-3.4,12.6
			c0.2-1.5,0.4-3.2,0.4-4.8c0-5.1-1.7-9.9-8.5-9.9c-1.1-0.1-6.2-0.1-6.2-0.1c1.1-1.6,1.5-3.2,1.5-4.9
			C131,86.7,130.2,84.5,129.3,82.1 M108.9,116.5c1.5-1.3,4-4.7,4.3-9.7c0.8,3.7,6.3,5.3,15.8,5.3c13.1,0,31.7-6.5,31.7-15.5
			c0-2.1-2-2.8-5.4-2.8c-1.4,0-3.1,0.1-4.9,0.4c1.1-1.5,1.5-3.2,1.5-5.2c0-2.2-0.7-4.6-1.5-6.5c1.3,1.4,4.2,2.6,9.5,2.6
			c4.1,0,6.3,0.1,6.3,3.8c0,8.3-10.3,30.1-45.2,30.1C111.6,119,108.9,116.5,108.9,116.5"/>
	</g>
	<g>
		<path class="st0" d="M64.2,157.7c2.7-2.1,3.1-5.5,3.1-8.6c10.8,2.7,13.1-3.9,12.1-11.8c-0.7-5-3.1-4.3-9.6-4.3
			c2.3-2.8,2.2-6.1,0.1-11.3c4.5,2.9,5.1,2.4,17.8,2.4c18.2,0.1,15.9-1.9,15.9,27l-4.2,5.7c0.1-3,0.1-9.3-0.1-12.2
			c-0.8-10.7-1.2-12-8.7-12c-2.6,0-4,0.1-8.2,0.1C83.8,147.1,82.4,160.1,64.2,157.7"/>
	</g>
	<g>
		<path class="st0" d="M124.6,133.2l-16.4,0.1c2.3-3.2,2-7.3,0.4-11.7c3,2.4,4.2,3,13.1,3c9.9,0,16.9-1,16.9,11.9
			c0,2.9-1.9,11.9-6.9,13.7c6.9,0.4,11.1-1.5,11.1-1.5c-3.2,8.3-16.6,8.9-28.4,8.9c-3.1,0-5.7-0.1-7.4-0.4c2.4-2.1,3.8-5.5,4.2-8.6
			c3.9,3.2,23.1,5.2,23.1-8.4C134.2,135.1,129.5,133.2,124.6,133.2"/>
	</g>
	<g>
		<path class="st0" d="M159.9,150.9H157l0.2-0.9c1,0,1.9,0,2.9-0.1L159.9,150.9z M143.8,121.6c1.5,1.1,1.5,2.9,8.8,2.8
			c4-0.1,5.2,3.2,5.2,7.5c0,6.2-2.7,14.5-3.8,18.2c1.1,0,2.2,0,3.2-0.1c2.7-9.3,8.3-15.5,10.8-16.8l-7.1,0.1c2-3,1.1-7.7-1-11.3
			c2.9,2.4,7,2.4,9.4,2.4c4.3,0.1,5.2-0.3,5.1,3.6l-0.1,5.3c0,0-10.4,2.4-14.1,16.6c14.7-0.7,26.9-3.9,26.9-11.6
			c0-6.4-4.7-5.3-10.3-5.3c1.3-3.5,1.4-7.4-0.7-11.3c1.4,1.1,2.2,2.8,8.7,2.8c5.4,0,5.2,5.1,5.2,8c0,18.6-17.1,25.1-36.4,25.1
			c-1.2,0-2.4,0-3.5-0.1c2.5-7.6,4.1-14.1,4.1-18.4c0-3.8-1.2-5.7-4.1-5.7h-5.7C146.7,129.6,145.4,126,143.8,121.6"/>
	</g>
	<g>
		<path class="st0" d="M197.7,23.1L197.7,23.1L197.7,23.1z"/>
	</g>
	<g>
		<path class="st0" d="M197.7,23.1L197.7,23.1L197.7,23.1z"/>
	</g>
	<g>
		<path class="st0" d="M190.8,23.1L190.8,23.1L190.8,23.1L190.8,23.1 M197.1,85.7c0.1,0,0.1-0.1,0.1-0.2v-0.1c0-0.2-0.1-0.4-0.3-0.4
			h-0.1c0,0-0.8-0.2-1-0.8c-0.1-0.5-0.1-0.9-0.6-1c-0.2-0.1-0.4-0.3-0.5-0.6c-0.1-0.5-0.1-1-0.7-1h0.1v-1.4c1.3-0.3,2.1-1.2,1-2.9
			c-1.2-1.8-1.3-5.3-1.3-6.3c0.3-0.1,0.5-0.3,0.5-0.7V70c0-0.4-0.3-0.7-0.7-0.7h-0.2v-1.9h0.9c0.8,0,0.7-0.5,0.9-1
			c0.1-0.3,0.4-0.5,0.6-0.6c0.6-0.1,0.6-0.5,0.8-1c0.2-0.5,1.2-0.8,1.2-0.8h0.2c0.2,0,0.3-0.1,0.3-0.3v-0.1c0-0.2-0.2-0.4-0.4-0.4
			h-4.5v-3h0.1c0.6,0,1.1-0.5,1.1-1.1v-0.3c0.6-0.2,1.1-0.5,1.3-1.1c0.6-1.6-0.2-2.5-0.9-4.3c-0.5-1.3,0.1-2.3,0.5-2.8h0.8
			c0.3,0,0.5-0.2,0.6-0.4v-0.1c0-0.3-0.3-0.6-0.6-0.6h-2.4V30.4v-0.6V29v-0.8v-2.8V24c0.1,0.3,0.1,0.6,0.3,0.8l0,0
			c0.1,0.2,0.4,0.1,0.4-0.1v-0.1c0.1-0.5-0.1-0.8-0.3-1.2v-0.1c-0.1-0.2-0.1-0.4,0-0.7c0-0.2,0.1-0.5,0.2-0.7c0-0.3,0-0.6-0.2-0.7
			c-0.1-0.1-0.3-0.2-0.5-0.3c-0.4-0.1-0.8,0-1.2,0.1c-0.1,0-0.2,0-0.3,0v-0.5c0.2,0,0.4-0.1,0.6-0.2c0.3-0.3,0.4-0.9,0.2-1.3
			c-0.2-0.5-0.5-1-0.7-1.5c-0.3-0.5-0.4-1.1-0.3-1.7c0-0.3,0.1-0.5,0.2-0.8c-0.1,0.1-0.2,0.2-0.3,0.3c-0.3,0.4-0.6,0.8-0.8,1.2
			c-0.2,0.4-0.4,0.9-0.4,1.4c-0.1,0.5-0.1,1,0,1.5s0.4,0.9,0.8,1c0.1,0,0.3,0.1,0.4,0.1V21c-0.2,0-0.4-0.1-0.6-0.1
			c-0.4-0.1-0.8-0.3-1.1,0c-0.2,0.2-0.3,0.5-0.4,0.8c0,0.1,0,0.1,0,0.2c0,0,0,0,0,0.1c0,0.2,0,0.5,0,0.7s-0.1,0.5-0.1,0.7
			c-0.1,0.2,0,0.5,0.1,0.7c0.1,0.1,0.2,0.2,0.4,0.2v0.4v3.6v0.8v0.7v0.6v19.1h-2.4c-0.3,0-0.6,0.3-0.6,0.6c0,0.1,0,0.1,0,0.1
			c0.1,0.2,0.3,0.4,0.6,0.4h0.8c0.3,0.4,0.7,1,0.7,1.9c0,0.3-0.1,0.6-0.2,0.9c-0.7,1.9-1.5,2.7-0.9,4.3c0.2,0.6,0.7,0.9,1.3,1.1v0.3
			c0,0.2,0,0.4,0.1,0.5c0.2,0.3,0.5,0.5,0.9,0.5h0.1v0.8v1.5v0.7h-4.5c-0.2,0-0.4,0.2-0.4,0.4v0.1c0,0.2,0.2,0.3,0.3,0.3h0.2
			c0,0,1,0.2,1.2,0.8c0.1,0.4,0.1,0.7,0.5,0.9c0.1,0,0.2,0.1,0.3,0.1c0.2,0.1,0.5,0.3,0.6,0.6c0.1,0.4,0.1,0.7,0.3,0.9
			c0.1,0.1,0.3,0.1,0.5,0.1h0.9v0.6v0.7v0.5h-0.2c-0.4,0-0.7,0.3-0.7,0.7v0.6c0,0.3,0.2,0.6,0.5,0.7c0,0.2,0,0.6,0,1
			c-0.1,1.5-0.3,3.9-1.3,5.3c-0.3,0.4-0.4,0.8-0.5,1.1c-0.1,0.9,0.5,1.5,1.5,1.7v0.3v1h0.1c-0.2,0-0.3,0-0.4,0.1
			c-0.2,0.2-0.2,0.5-0.3,0.9c-0.1,0.3-0.3,0.5-0.5,0.6c-0.1,0-0.2,0.1-0.2,0.1c-0.3,0.2-0.3,0.5-0.4,0.9c-0.2,0.5-1,0.8-1,0.8
			c-1.1,0-2.2,0-3.4,0c0,0-0.7,3.6-3.7,7.6c0-6-1.7-7.3-6-7.3c-3.8,0-5.9-1.3-7.5-2.9c1.5,3.6,2.1,8.1-0.2,11.3h5.7
			c6.3,0,2,15-0.7,24.2l6.3-4.2l1.8-15.1c0.6-4.9,2.1-4.8,4.8-4.9c8.4-0.4,16.4-0.1,16.4,8.5c0,9.6-9.9,10.4-16.4,7.4
			c0,4.1-1.1,6-4.1,8.4c11.8,1.7,23.2-0.1,23.2-21C203.5,89.7,202.4,86.8,197.1,85.7"/>
	</g>
	<g>
		<polyline class="st0" points="195.1,51.4 195.1,51.4 195.1,51.4 195.1,51.4 		"/>
	</g>
	<g>
		<path class="st0" d="M193.5,23.1L193.5,23.1L193.5,23.1z"/>
	</g>
	<g>
		<path class="st0" d="M193.5,23.1L193.5,23.1L193.5,23.1z"/>
	</g>
	<g>
		<path class="st0" d="M88.9,47.1h-0.1c-0.2,0-0.4,0.1-0.5,0.2l-0.2,0.3c-0.2,0.3-0.3,0.6-0.3,1c0,0.6,0.1,1.4,0.3,2.6l0.1,0.6
			l-0.7,1.1h-0.3v-3.4c0-0.8,0.2-1.4,0.5-1.8l0.2-0.2c0.1-0.1,0.1-0.2,0.1-0.2c0-0.1-0.1-0.1-0.2-0.1H83v-1.8h5.9V47.1z"/>
	</g>
	<g>
		<path class="st0" d="M94.9,49.1c0-0.4,0-0.7-0.1-1c-0.2-0.7-0.7-1-1.5-1h-1.7c-0.4,0-0.8,0.2-1,0.6c-0.3,0.4-0.4,0.9-0.4,1.5
			c0,0.3,0.1,0.6,0.2,0.9c0.1,0.4,0.3,0.7,0.6,0.8h2.5c0.5,0,0.9-0.1,1.1-0.4C94.8,50.1,94.9,49.7,94.9,49.1 M95.4,48.2v1
			c0,0.4,0,0.8-0.1,1.2v0.2c-0.2,0.8-0.4,1.5-0.8,2.1h-4l-0.3-0.6c-0.4-0.7-0.6-1.6-0.6-2.6c0-0.9,0.2-1.5,0.6-2l0.2-0.2
			c0.1-0.1,0.1-0.1,0.1-0.2c0-0.1-0.1-0.1-0.2-0.1h-0.7v-1.8h5.2C95.2,45.9,95.4,46.8,95.4,48.2"/>
	</g>
	<g>
		<path class="st0" d="M102.1,46.8c0,0.2-0.1,0.4-0.2,0.6l-0.1,0.2c-0.1,0.3-0.2,0.6-0.2,1c0,0.2,0.1,0.9,0.3,2l0.2,1.1l-0.7,1.1
			H101l-0.1-3.5c0-0.7,0.1-1.2,0.3-1.7l0.1-0.2c0-0.1,0.1-0.2,0.1-0.3s-0.1-0.2-0.3-0.2h-3.4c-0.3,0-0.5,0.1-0.6,0.3
			c-0.2,0.3-0.3,0.6-0.3,1c0,0.7,0.1,1.5,0.2,2.3l0.2,1.1l-0.7,1.1h-0.2l-0.1-3.4c0-0.6,0-1.1,0.2-1.4c0,0,0.1-0.2,0.3-0.4
			c0.2-0.2,0.2-0.3,0.2-0.4c0-0.1-0.1-0.1-0.2-0.1H96v-1.8h6v1.6H102.1z"/>
	</g>
	<g>
		<path class="st0" d="M105.4,49.4c0,0.6,0,1.7-0.1,3.4h-0.4l-0.1-3.2c0-1.1-0.1-1.7-0.2-2s-0.5-0.5-1-0.5h-1v-1.8h2.6
			c0.1,0.3,0.2,0.6,0.2,1V49.4z"/>
	</g>
	<g>
		<path class="st0" d="M110.5,48.9c-0.3,0.4-0.4,0.8-0.4,1.1c0,0.4,0.1,1,0.3,1.7l-0.7,1.1h-0.3v-2.3c0-0.6,0.2-1.1,0.5-1.5l0.3-0.4
			L110.5,48.9z M115.2,46.8c0,0.2-0.1,0.4-0.2,0.6l-0.1,0.2c-0.1,0.3-0.2,0.6-0.2,1c0,0.2,0.1,0.9,0.3,2l0.2,1.1l-0.7,1.1h-0.3
			l-0.1-3.5c0-0.7,0.1-1.2,0.3-1.7l0.1-0.2c0.1-0.1,0.1-0.2,0.1-0.3s-0.1-0.2-0.3-0.2h-5.1v-1.8h6L115.2,46.8L115.2,46.8z"/>
	</g>
	<g>
		<path class="st0" d="M117.3,48.4c-0.4,0.3-0.6,0.8-0.6,1.5v1c0,1.2,0.1,2.2,0.3,2.9l0.1,0.4l-0.8,1.1H116l-0.1-5.1
			c0-0.8,0.3-1.4,0.9-1.9l0.2-0.2L117.3,48.4z M121.9,47.1v0.8c0,0.9-0.5,1.6-1.4,2.2L119,51c-0.2,0.1-0.3,0.3-0.3,0.5
			s0.1,0.4,0.3,0.4l-0.7,0.7l-0.1-0.1c-0.3-0.1-0.4-0.4-0.4-0.7c0-0.2,0-0.3,0.1-0.4c0.2-0.3,0.5-0.6,1-0.9l1.3-0.8
			c0.5-0.3,0.8-0.8,0.8-1.4c0-0.9-0.5-1.4-1.4-1.4h-3.7v-1.8h5.5C121.7,45.6,121.9,46.2,121.9,47.1"/>
	</g>
	<g>
		<path class="st0" d="M128.2,47.1h-0.1c-0.2,0-0.4,0.1-0.5,0.2l-0.2,0.3c-0.2,0.3-0.3,0.6-0.3,1c0,0.6,0.1,1.4,0.3,2.6l0.1,0.6
			l-0.7,1.1h-0.3v-3.4c0-0.8,0.2-1.4,0.5-1.8l0.2-0.2c0.1-0.1,0.1-0.2,0.1-0.2c0-0.1-0.1-0.1-0.2-0.1h-4.8v-1.8h5.9V47.1z"/>
	</g>
	<g>
		<path class="st0" d="M134.8,46.5c0,0.5-0.2,1-0.6,1.4c-0.3,0.3-0.5,0.5-0.8,0.7l-0.7,0.6l1.2,1c0.3,0.3,0.5,0.6,0.5,0.9v1.6h-5.2
			v-1.9h3.8l0,0c0,0,0,0,0-0.1l-1.5-1.1c-0.5-0.3-0.7-0.8-0.7-1.3l-0.1-1c0-0.2-0.1-0.3-0.3-0.3h-1.7v-1.8h2.4v1.7
			c0,0.4,0,0.7,0.1,0.9c0.1,0.3,0.2,0.5,0.5,0.7l0.2,0.1c0.1,0.1,0.2,0.1,0.4,0.1c0.1,0,0.3-0.1,0.6-0.2c0.3-0.2,0.5-0.3,0.7-0.6
			c0.2-0.2,0.3-0.4,0.3-0.6c0-0.2-0.1-0.4-0.4-0.4h-1.1v-1.8h2.3c0.1,0.3,0.2,0.6,0.2,1L134.8,46.5L134.8,46.5z"/>
	</g>
	<g>
		<path class="st0" d="M144.2,47.6c0,0.5-0.1,0.9-0.4,1.3c-0.2,0.3-0.5,0.6-1,1l-1.5,1.1c-0.2,0.1-0.3,0.3-0.3,0.5s0.1,0.4,0.4,0.5
			l-0.6,0.8h-0.1c-0.4-0.1-0.6-0.4-0.6-0.8c0-0.1,0-0.3,0.1-0.4c0.2-0.3,0.4-0.6,0.8-0.8l1.5-1.1c0.5-0.4,0.8-0.8,0.8-1.3
			c0-0.8-0.4-1.2-1.3-1.2h-3.5v-1.4c0-0.7,0.1-1.4,0.4-1.9l0.3-0.6c0-0.1,0.1-0.2,0.1-0.3c0-0.2-0.1-0.4-0.4-0.4h-0.5v-1.1h1.2
			c0.2,0.2,0.3,0.4,0.3,0.7v0.1c0,0.2-0.1,0.5-0.2,0.8l-0.5,1c-0.1,0.2-0.2,0.5-0.2,0.7c0,0.3,0.1,0.5,0.4,0.5h4.4
			c0.2,0.4,0.3,0.7,0.3,1.2v1.1H144.2z"/>
	</g>
	<g>
		<path class="st0" d="M150.9,46.5c0,0.3-0.1,0.7-0.3,1l-0.3,0.5c-0.5,0.7-0.8,1.7-1,2.9l-0.1,0.8c-0.1,0.4-0.2,0.6-0.4,0.7l-4,1.8
			v-1.9l2.1-0.8c0.2-0.1,0.3-0.3,0.2-0.5l-1.4-3.5c-0.1-0.2-0.1-0.4-0.2-0.4c0,0-0.1-0.1-0.2-0.1h-0.6v-1.8h2.6V47h-0.9
			c-0.2,0-0.2,0.1-0.1,0.4l1.3,3.4c0.1,0.2,0.1,0.3,0.2,0.3c0,0,0.1,0,0.2,0l0.3-0.2c0.2-0.1,0.3-0.2,0.3-0.4l0.1-0.4
			c0.3-1,0.8-1.8,1.3-2.6c0.1-0.1,0.1-0.2,0.1-0.2c0-0.1-0.1-0.2-0.3-0.2h-1.6v-1.8h2.5c0.1,0.3,0.1,0.5,0.1,0.7L150.9,46.5
			L150.9,46.5z"/>
	</g>
	<g>
		<path class="st0" d="M157.4,48.5v0.8c0,0.9-0.2,1.7-0.5,2.7l-0.3,0.8h-5v-1.9h3.8c1.1,0,1.6-0.6,1.6-1.8c0-1-0.3-1.7-0.8-1.9
			c-0.2-0.1-0.4-0.1-0.7-0.1h-1.9c-0.2,0-0.4,0-0.6,0.1s-0.4,0.2-0.5,0.4s-0.2,0.3-0.2,0.4c0,0.2,0.1,0.2,0.3,0.2h1.4v1.7h-2.4
			c-0.1-0.6-0.1-0.8-0.1-0.8c0-0.7,0.2-1.3,0.7-1.7l0.2-0.2c0.1,0,0.1-0.1,0.1-0.1c0-0.1-0.1-0.1-0.2-0.1h-0.5v-1.8h5
			C157.2,45.9,157.4,47,157.4,48.5"/>
	</g>
	<g>
		<path class="st0" d="M164.4,50l-0.2,2.7H160v-1.9h3.3c0.5,0,0.8-0.5,0.8-1.4s-0.3-1.6-0.9-1.9c-0.4-0.2-0.9-0.3-1.6-0.3
			s-1.3,0.3-1.8,0.9c-0.3,0.4-0.6,0.9-0.7,1.4c-0.1,0.5-0.2,1-0.2,1.6v1.7h-0.5c0-0.3,0-0.9,0-1.9c0-0.4,0-0.7,0.1-1.1
			c0.1-0.5,0.2-0.9,0.4-1.2c0.2-0.3,0.4-0.7,0.7-1c0.1-0.1,0.1-0.1,0.1-0.2c0-0.2-0.1-0.3-0.3-0.3H158v-1.8h2.2
			c0.1,0.2,0.2,0.4,0.2,0.7v0.3c0,0.2,0,0.4-0.1,0.5c0,0.1,0,0.2,0.1,0.2h0.1c0.4-0.2,0.7-0.4,0.8-0.5c0.2-0.3,0.4-0.7,0.5-1.4h0.1
			c0.5,0,1.1,0.3,1.6,0.8c0.6,0.6,0.9,1.6,0.9,3.1C164.4,49.3,164.4,49.6,164.4,50"/>
	</g>
	<g>
		<path class="st0" d="M80.3,58.8c0,0.5-0.1,0.9-0.4,1.3c-0.2,0.3-0.5,0.6-1,1l-1.5,1.1c-0.2,0.1-0.3,0.3-0.3,0.5s0.1,0.4,0.4,0.5
			L76.9,64h-0.1c-0.4-0.1-0.6-0.4-0.6-0.8c0-0.1,0-0.3,0.1-0.4c0.2-0.3,0.4-0.6,0.8-0.8l1.5-1.1c0.5-0.4,0.8-0.8,0.8-1.3
			c0-0.8-0.4-1.2-1.3-1.2h-3.5V57c0-0.7,0.1-1.4,0.4-1.9l0.3-0.6c0-0.1,0.1-0.2,0.1-0.3c0-0.2-0.1-0.4-0.4-0.4h-0.5v-1.1h1.2
			c0.2,0.2,0.3,0.4,0.3,0.7v0.1c0,0.2-0.1,0.5-0.2,0.8l-0.5,1c-0.1,0.2-0.2,0.5-0.2,0.7c0,0.3,0.1,0.5,0.4,0.5h4.4
			c0.2,0.4,0.3,0.7,0.3,1.2v1.1H80.3z"/>
	</g>
	<g>
		<path class="st0" d="M87.4,62.9l-1.1,1.2l0,0L82.7,60c-0.1-0.1-0.2-0.2-0.3-0.2c-0.1,0-0.2,0-0.3,0.1c-0.1,0.1-0.3,0.3-0.4,0.5
			s-0.2,0.4-0.2,0.6c0,0.7,0.3,1.1,1,1.1h0.4v1.8h-2.1v-2.3c0-0.8,0.2-1.3,0.7-1.8l0.4-0.4l-1.5-1.8v-0.1l1.2-1.2l0,0l3,3.5
			c0.1,0.1,0.2,0.2,0.4,0.2c0.2,0,0.4-0.1,0.5-0.2c0.5-0.4,0.7-0.8,0.7-1.1c0-0.3-0.1-0.4-0.4-0.4h-1.1v-1.8H87
			c0.1,0.3,0.2,0.6,0.2,1v0.2c0,0.5-0.2,0.9-0.5,1.4c-0.3,0.4-0.6,0.7-0.9,1l-0.5,0.4L87.4,62.9z"/>
	</g>
	<g>
		<path class="st0" d="M93.1,60.6c0,1.4,0,2.6-0.1,3.3h-0.4l-0.1-3.6c0-0.9-0.1-1.5-0.3-1.7c-0.2-0.2-0.6-0.4-1.3-0.4h-3.3v-1.8h4.9
			c0.4,0.3,0.6,1,0.6,2L93.1,60.6L93.1,60.6z"/>
	</g>
	<g>
		<path class="st0" d="M101,58c0,0.2-0.1,0.4-0.2,0.6s-0.2,0.3-0.3,0.5l-0.4,0.6c-0.5,0.8-0.9,1.8-1.1,3.1l-0.2,1.1h-4.5L94,61.2
			c-0.1-0.6-0.1-0.9-0.1-1.1c0-0.7,0.2-1.2,0.5-1.5c0.1-0.1,0.1-0.1,0.1-0.2s-0.1-0.1-0.2-0.1h-0.6v-1.8h2.2v1.8h-0.3
			c-0.2,0-0.4,0.1-0.6,0.2s-0.3,0.3-0.4,0.6c0,0.2-0.1,0.5-0.1,0.9c0,0.5,0.1,1.1,0.2,1.6l0.1,0.5H95c0.1,0,0.3-0.2,0.5-0.5l1.4-2.7
			c0.1-0.1,0.1-0.2,0.1-0.3c0-0.1-0.1-0.2-0.3-0.2h-0.4v-1.8h2.1v1.8H98c-0.2,0-0.3,0.1-0.5,0.4l-1.5,3c0,0.1-0.1,0.2-0.1,0.2
			c0,0.1,0.1,0.2,0.2,0.2h2.3l0.4-0.9c0.5-1,0.9-1.7,1.2-2.1l0.2-0.3c0.1-0.1,0.1-0.2,0.1-0.3c0-0.2-0.1-0.2-0.4-0.2h-1.1v-1.8h2
			c0.1,0.2,0.1,0.4,0.1,0.8L101,58L101,58z"/>
	</g>
	<g>
		<path class="st0" d="M104.2,58c0,0.3,0,0.6-0.1,0.8c-0.2,0.6-0.5,1.1-1,1.5l-0.6,0.5l-0.2-0.3c0.4-0.3,0.7-0.5,0.8-0.7
			c0.3-0.3,0.4-0.6,0.4-0.8c0-0.2-0.1-0.4-0.2-0.5s-0.3-0.2-0.5-0.2h-1.4v-1.8h2.5C104.1,56.7,104.2,57.3,104.2,58L104.2,58z"/>
	</g>
	<g>
		<path class="st0" d="M113.8,57.5c0,0.8-0.4,1.6-1.2,2.3l-1.8,1.6c0.4,1.6,1.1,2.9,1.9,3.9l-0.6,1.1h-0.2l-1.2-3.1
			c-0.5-1.3-0.8-2.6-0.9-3.9v-0.3c0-0.4-0.1-0.6-0.1-0.6c-0.1-0.2-0.2-0.3-0.4-0.3h-1.5v-1.8h2.5v2.5c0,0.7,0.1,1.2,0.3,1.5
			c0.1,0.2,0.2,0.2,0.3,0.2c0.2,0,0.3-0.1,0.6-0.3l0.6-0.6c0.4-0.4,0.6-0.7,0.6-1s-0.2-0.5-0.5-0.5h-1v-1.8h2.4
			c0,0.1,0.1,0.2,0.1,0.3c0,0.1,0,0.3,0,0.6v0.2H113.8z"/>
	</g>
	<g>
		<path class="st0" d="M119.6,60.6c0,1.4,0,2.6-0.1,3.3h-0.4l-0.1-3.6c0-0.9-0.1-1.5-0.3-1.7c-0.2-0.2-0.6-0.4-1.3-0.4h-3.3v-1.8
			h4.9c0.4,0.3,0.6,1,0.6,2L119.6,60.6L119.6,60.6z"/>
	</g>
	<g>
		<path class="st0" d="M126.8,62.9l-1.1,1.2l0,0L122,60c-0.1-0.1-0.2-0.2-0.3-0.2c-0.1,0-0.2,0-0.3,0.1c-0.1,0.1-0.3,0.3-0.4,0.5
			s-0.2,0.4-0.2,0.6c0,0.7,0.3,1.1,1,1.1h0.4v1.8h-2.1v-2.3c0-0.8,0.2-1.3,0.7-1.8l0.4-0.4l-1.5-1.8v-0.1l1.2-1.2l0,0l3,3.5
			c0.1,0.1,0.2,0.2,0.4,0.2c0.2,0,0.4-0.1,0.5-0.2c0.5-0.4,0.7-0.8,0.7-1.1c0-0.3-0.1-0.4-0.4-0.4H124v-1.8h2.3
			c0.1,0.3,0.2,0.6,0.2,1v0.2c0,0.5-0.2,0.9-0.5,1.4c-0.3,0.4-0.6,0.7-0.9,1l-0.5,0.4L126.8,62.9z"/>
	</g>
	<g>
		<path class="st0" d="M133,58c0,0.3,0,0.6-0.1,0.8c-0.2,0.6-0.5,1.1-1,1.5l-0.6,0.5l-0.2-0.3c0.4-0.3,0.7-0.5,0.8-0.7
			c0.3-0.3,0.4-0.6,0.4-0.8c0-0.2-0.1-0.4-0.2-0.5s-0.3-0.2-0.5-0.2h-1.4v-1.8h2.5C132.9,56.7,133,57.3,133,58L133,58z"/>
	</g>
	<g>
		<path class="st0" d="M136.1,58c0,0.3,0,0.6-0.1,0.8c-0.2,0.6-0.5,1.1-1,1.5l-0.6,0.5l-0.2-0.3c0.4-0.3,0.7-0.5,0.8-0.7
			c0.3-0.3,0.4-0.6,0.4-0.8c0-0.2-0.1-0.4-0.2-0.5s-0.3-0.2-0.5-0.2h-1.4v-1.8h2.5C136,56.7,136.1,57.3,136.1,58L136.1,58z"/>
	</g>
	<g>
		<path class="st0" d="M140,63.9h-3.6V62h2.7l-0.1-0.4c-0.1-0.5-0.1-0.9-0.1-1.3c0-0.3,0-0.6,0.1-0.9l0.1-0.5c0-0.1,0-0.1,0-0.2
			c0-0.4-0.2-0.5-0.5-0.5H137v-1.8h2.6c0.1,0.2,0.2,0.6,0.2,1v0.2c0,0.3,0,0.8-0.1,1.3l-0.1,0.4c0,0.2,0,0.5,0,1.1
			c0,0.2,0.1,0.6,0.3,1.1l0.3,0.9v1.5H140z"/>
	</g>
	<g>
		<path class="st0" d="M146.7,57.7c0,0.3-0.1,0.7-0.3,1l-0.3,0.5c-0.5,0.7-0.8,1.7-1,2.9l-0.1,0.8c-0.1,0.4-0.2,0.6-0.4,0.7l-4,1.8
			v-1.9l2.1-0.8c0.2-0.1,0.3-0.3,0.2-0.5l-1.4-3.5c-0.1-0.2-0.1-0.4-0.2-0.4c0,0-0.1-0.1-0.2-0.1h-0.6v-1.8h2.6v1.8h-0.9
			c-0.2,0-0.2,0.1-0.1,0.4l1.3,3.4c0.1,0.2,0.1,0.3,0.2,0.3c0,0,0.1,0,0.2,0l0.3-0.2c0.2-0.1,0.3-0.2,0.3-0.4l0.1-0.4
			c0.3-1,0.8-1.8,1.3-2.6c0.1-0.1,0.1-0.2,0.1-0.2c0-0.1-0.1-0.2-0.3-0.2H144v-1.8h2.5c0.1,0.3,0.1,0.5,0.1,0.7L146.7,57.7
			L146.7,57.7z"/>
	</g>
	<g>
		<path class="st0" d="M153,57.7c0,0.2-0.1,0.5-0.3,0.9l-0.1,0.1c-0.3,0.5-0.4,1.1-0.4,1.9v0.9c0,1.3,0.1,2.4,0.3,3.3l0.1,0.5
			l-0.8,1.1h-0.3l-0.1-5.1c0-1.2,0.2-2,0.5-2.5l0.1-0.2c0.1-0.1,0.1-0.2,0.1-0.3c0-0.1-0.1-0.2-0.3-0.2h-1.7v-1.8h2.7v1.4H153z"/>
	</g>
	<g>
		<path class="st0" d="M159.8,57.7c0,0.3-0.1,0.7-0.3,1l-0.3,0.5c-0.5,0.7-0.8,1.7-1,2.9l-0.1,0.8c-0.1,0.4-0.2,0.6-0.4,0.7l-4,1.8
			v-1.9l2.1-0.8c0.2-0.1,0.3-0.3,0.2-0.5l-1.4-3.5c-0.1-0.2-0.1-0.4-0.2-0.4c0,0-0.1-0.1-0.2-0.1h-0.6v-1.8h2.6v1.8h-0.9
			c-0.2,0-0.2,0.1-0.1,0.4l1.3,3.4c0.1,0.2,0.1,0.3,0.2,0.3c0,0,0.1,0,0.2,0l0.3-0.2c0.2-0.1,0.3-0.2,0.3-0.4l0.1-0.4
			c0.3-1,0.8-1.8,1.3-2.6c0.1-0.1,0.1-0.2,0.1-0.2c0-0.1-0.1-0.2-0.3-0.2h-1.6v-1.8h2.5c0.1,0.3,0.1,0.5,0.1,0.7L159.8,57.7
			L159.8,57.7z"/>
	</g>
	<g>
		<path class="st0" d="M166.7,61.2l-0.2,2.7h-4.2V62h3.3c0.5,0,0.8-0.5,0.8-1.4s-0.3-1.6-0.9-1.9c-0.4-0.2-0.9-0.3-1.6-0.3
			s-1.3,0.3-1.8,0.9c-0.3,0.4-0.6,0.9-0.7,1.4s-0.2,1-0.2,1.6V64h-0.5c0-0.3,0-0.9,0-1.9c0-0.4,0-0.7,0.1-1.1
			c0.1-0.5,0.2-0.9,0.4-1.2c0.2-0.3,0.4-0.7,0.7-1c0.1-0.1,0.1-0.1,0.1-0.2c0-0.2-0.1-0.3-0.3-0.3h-1.2v-1.8h2.2
			c0.1,0.2,0.2,0.4,0.2,0.7v0.3c0,0.2,0,0.4-0.1,0.5c0,0.1,0,0.2,0.1,0.2h0.1c0.4-0.2,0.7-0.4,0.8-0.5c0.2-0.3,0.4-0.7,0.5-1.4h0.1
			c0.5,0,1.1,0.3,1.6,0.8c0.6,0.6,0.9,1.6,0.9,3.1C166.7,60.5,166.7,60.8,166.7,61.2"/>
	</g>
	<g>
		<path class="st0" d="M172.7,58.8c0,0.5-0.1,0.9-0.4,1.3c-0.2,0.3-0.5,0.6-1,1l-1.5,1.1c-0.2,0.1-0.3,0.3-0.3,0.5s0.1,0.4,0.4,0.5
			l-0.6,0.8h-0.1c-0.4-0.1-0.6-0.4-0.6-0.8c0-0.1,0-0.3,0.1-0.4c0.2-0.3,0.4-0.6,0.8-0.8l1.5-1.1c0.5-0.4,0.8-0.8,0.8-1.3
			c0-0.8-0.4-1.2-1.3-1.2H167V57c0-0.7,0.1-1.4,0.4-1.9l0.3-0.6c0-0.1,0.1-0.2,0.1-0.3c0-0.2-0.1-0.4-0.4-0.4h-0.5v-1.1h1.2
			c0.2,0.2,0.3,0.4,0.3,0.7v0.1c0,0.2-0.1,0.5-0.2,0.8l-0.5,1c-0.1,0.2-0.2,0.5-0.2,0.7c0,0.3,0.1,0.5,0.4,0.5h4.4
			c0.2,0.4,0.3,0.7,0.3,1.2v1.1H172.7z"/>
	</g>
	<g>
		<path class="st0" d="M82,175.2c0,1.4,0,2.6-0.1,3.3h-0.4l-0.1-3.6c0-0.9-0.1-1.5-0.3-1.7c-0.2-0.2-0.6-0.4-1.3-0.4h-3.3V171h4.9
			c0.4,0.3,0.6,1,0.6,2L82,175.2L82,175.2z"/>
	</g>
	<g>
		<path class="st0" d="M85.3,175.2c0,0.6,0,1.7-0.1,3.4h-0.4l-0.1-3.2c0-1.1-0.1-1.7-0.2-2s-0.5-0.5-1-0.5h-1v-1.8h2.6
			c0.1,0.3,0.2,0.6,0.2,1V175.2z"/>
	</g>
	<g>
		<path class="st0" d="M87.2,174.7c-0.3,0.4-0.4,0.8-0.4,1.1c0,0.4,0.1,1,0.3,1.7l-0.7,1.1h-0.3v-2.3c0-0.6,0.2-1.1,0.5-1.5l0.3-0.4
			L87.2,174.7z M91.9,172.5c0,0.2-0.1,0.4-0.2,0.6l-0.1,0.2c-0.1,0.3-0.2,0.6-0.2,1c0,0.2,0.1,0.9,0.3,2l0.2,1.1l-0.7,1.1h-0.3
			l-0.1-3.5c0-0.7,0.1-1.2,0.3-1.7l0.1-0.2c0.1-0.1,0.1-0.2,0.1-0.3c0-0.1-0.1-0.2-0.3-0.2h-5.1v-1.8h6L91.9,172.5L91.9,172.5z"/>
	</g>
	<g>
		<path class="st0" d="M99.2,173.7c0,0.6-0.2,1.4-0.5,2.2c-0.2,0.7-0.4,1.2-0.5,1.5l-0.2,1h-4.8l-0.3-2.7c0-0.3-0.1-0.7-0.1-1.1
			c0-0.5,0.1-0.9,0.3-1.2l0.2-0.4c0-0.1,0.1-0.1,0.1-0.2s-0.1-0.1-0.2-0.1h-0.7v-1.8h2.2c0.1,0.1,0.1,0.4,0.1,0.7v0.5
			c0,0.3,0,0.5-0.1,0.6h-0.5c-0.3,0-0.4,0.1-0.6,0.2c-0.2,0.2-0.3,0.7-0.3,1.4c0,0.5,0.1,1,0.2,1.6l0.1,0.6H97c0.3,0,0.6,0,0.7-0.1
			s0.3-0.3,0.4-0.5c0.2-0.5,0.3-0.9,0.3-1.2c0-0.6-0.1-1-0.4-1.3c-0.3-0.4-0.7-0.6-1.3-0.6c-0.4,0-0.7,0.1-1,0.4s-0.5,0.7-0.7,1.3
			h-0.4c0.1-0.8,0.3-1.5,0.7-2.3c0.4-0.9,1-1.3,1.7-1.3c0.4,0,0.7,0.1,0.9,0.2c0.3,0.2,0.5,0.4,0.7,0.7
			C99,172.4,99.2,173,99.2,173.7L99.2,173.7z"/>
	</g>
	<g>
		<path class="st0" d="M100.8,174.7c-0.3,0.4-0.4,0.8-0.4,1.1c0,0.4,0.1,1,0.3,1.7l-0.7,1.1h-0.3v-2.3c0-0.6,0.2-1.1,0.5-1.5
			l0.3-0.4L100.8,174.7z M105.5,172.5c0,0.2-0.1,0.4-0.2,0.6l-0.1,0.2c-0.1,0.3-0.2,0.6-0.2,1c0,0.2,0.1,0.9,0.3,2l0.2,1.1l-0.7,1.1
			h-0.3l-0.1-3.5c0-0.7,0.1-1.2,0.3-1.7l0.1-0.2c0.1-0.1,0.1-0.2,0.1-0.3c0-0.1-0.1-0.2-0.3-0.2h-5.1v-1.8h6L105.5,172.5
			L105.5,172.5z"/>
	</g>
	<g>
		<path class="st0" d="M112.1,175.2c0,0.6,0,1.7-0.1,3.4h-0.4l-0.1-3.2c0-1.1-0.1-1.7-0.2-2s-0.5-0.5-1-0.5h-1v-1.8h2.6
			c0.1,0.3,0.2,0.6,0.2,1V175.2z"/>
	</g>
	<g>
		<path class="st0" d="M118.1,175.2c0,1.4,0,2.6-0.1,3.3h-0.4l-0.1-3.6c0-0.9-0.1-1.5-0.3-1.7c-0.2-0.2-0.6-0.4-1.3-0.4h-3.3V171
			h4.9c0.4,0.3,0.6,1,0.6,2L118.1,175.2L118.1,175.2z"/>
	</g>
	<g>
		<path class="st0" d="M124.4,174.3v0.8c0,0.9-0.2,1.7-0.5,2.7l-0.3,0.8h-4.9v-1.9h3.6c1.1,0,1.6-0.6,1.6-1.8c0-1-0.3-1.7-0.8-1.9
			c-0.2-0.1-0.4-0.1-0.7-0.1h-3.7v-1.8h5C124.1,171.7,124.4,172.8,124.4,174.3"/>
	</g>
	<g>
		<path class="st0" d="M127.5,172.9h-0.4c-0.2,0-0.3,0.1-0.5,0.4l-0.1,0.1c-0.2,0.3-0.3,0.7-0.3,1.3c0,0.2,0.1,0.5,0.2,1.1
			c0.1,0.5,0.2,1,0.3,1.3l0.1,0.4l-0.5,1.1H126l-0.3-2.5c-0.1-0.5-0.1-1-0.1-1.5c0-0.4,0.2-0.8,0.5-1.2l0.2-0.3
			c0.1-0.1,0.1-0.2,0.1-0.2c0-0.1-0.1-0.1-0.2-0.1h-1.4V171h2.7L127.5,172.9L127.5,172.9z"/>
	</g>
	<g>
		<path class="st0" d="M133.5,173.4c0,0.5-0.1,0.9-0.4,1.3c-0.2,0.3-0.5,0.6-1,1l-1.5,1.1c-0.2,0.1-0.3,0.3-0.3,0.5s0.1,0.4,0.4,0.5
			l-0.6,0.8H130c-0.4-0.1-0.6-0.4-0.6-0.8c0-0.1,0-0.3,0.1-0.4c0.2-0.3,0.4-0.6,0.8-0.8l1.5-1.1c0.5-0.4,0.8-0.8,0.8-1.3
			c0-0.8-0.4-1.2-1.3-1.2h-3.5v-1.4c0-0.7,0.1-1.4,0.4-1.9l0.3-0.6c0-0.1,0.1-0.2,0.1-0.3c0-0.2-0.1-0.4-0.4-0.4h-0.5v-1.1h1.2
			c0.2,0.2,0.3,0.4,0.3,0.7v0.1c0,0.2-0.1,0.5-0.2,0.8l-0.5,1c-0.1,0.2-0.2,0.5-0.2,0.7c0,0.3,0.1,0.5,0.4,0.5h4.4
			c0.2,0.4,0.3,0.7,0.3,1.2v1.1H133.5z"/>
	</g>
	<g>
		<path class="st0" d="M136.7,175.2c0,0.6,0,1.7-0.1,3.4h-0.4l-0.1-3.2c0-1.1-0.1-1.7-0.2-2s-0.5-0.5-1-0.5h-1v-1.8h2.6
			c0.1,0.3,0.2,0.6,0.2,1V175.2z"/>
	</g>
	<g>
		<path class="st0" d="M143.2,175.2c0,0.6,0,1.7-0.1,3.4h-0.4l-0.1-3.2c0-1.1-0.1-1.7-0.2-2s-0.5-0.5-1-0.5h-1v-1.8h2.6
			c0.1,0.3,0.2,0.6,0.2,1V175.2z"/>
	</g>
	<g>
		<path class="st0" d="M150.3,175.8l-0.2,2.7h-4.2v-1.9h3.3c0.5,0,0.8-0.5,0.8-1.4s-0.3-1.6-0.9-1.9c-0.4-0.2-0.9-0.3-1.6-0.3
			s-1.3,0.3-1.8,0.9c-0.3,0.4-0.6,0.9-0.7,1.4s-0.2,1-0.2,1.6v1.7h-0.5c0-0.3,0-0.9,0-1.9c0-0.4,0-0.7,0.1-1.1
			c0.1-0.5,0.2-0.9,0.4-1.2c0.2-0.3,0.4-0.7,0.7-1c0.1-0.1,0.1-0.1,0.1-0.2c0-0.2-0.1-0.3-0.3-0.3h-1.2v-1.8h2.2
			c0.1,0.2,0.2,0.4,0.2,0.7v0.3c0,0.2,0,0.4-0.1,0.5c0,0.1,0,0.2,0.1,0.2h0.1c0.4-0.2,0.7-0.4,0.8-0.5c0.2-0.3,0.4-0.7,0.5-1.4h0.1
			c0.5,0,1.1,0.3,1.6,0.8c0.6,0.6,0.9,1.6,0.9,3.1C150.3,175.1,150.3,175.4,150.3,175.8"/>
	</g>
	<g>
		<path class="st0" d="M158.3,172.6c0,0.2-0.1,0.4-0.2,0.6s-0.2,0.3-0.3,0.5l-0.4,0.6c-0.5,0.8-0.9,1.8-1.1,3.1l-0.2,1.1h-4.5
			l-0.3-2.7c-0.1-0.6-0.1-0.9-0.1-1.1c0-0.7,0.2-1.2,0.5-1.5c0.1-0.1,0.1-0.1,0.1-0.2s-0.1-0.1-0.2-0.1H151v-1.8h2.2v1.8h-0.3
			c-0.2,0-0.4,0.1-0.6,0.2s-0.3,0.3-0.4,0.6c0,0.2-0.1,0.5-0.1,0.9c0,0.5,0.1,1.1,0.2,1.6l0.1,0.5h0.2c0.1,0,0.3-0.2,0.5-0.5
			l1.4-2.7c0.1-0.1,0.1-0.2,0.1-0.3c0-0.1-0.1-0.2-0.3-0.2h-0.4v-1.8h2.1v1.8h-0.5c-0.2,0-0.3,0.1-0.5,0.4l-1.5,3
			c0,0.1-0.1,0.2-0.1,0.2c0,0.1,0.1,0.2,0.2,0.2h2.3l0.4-0.9c0.5-1,0.9-1.7,1.2-2.1l0.2-0.3c0.1-0.1,0.1-0.2,0.1-0.3
			c0-0.2-0.1-0.2-0.4-0.2H156v-1.8h2c0.1,0.2,0.1,0.4,0.1,0.8v0.6H158.3z"/>
	</g>
	<g>
		<path class="st0" d="M167.5,173.4c0,0.5-0.1,0.9-0.4,1.3c-0.2,0.3-0.5,0.6-1,1l-1.5,1.1c-0.2,0.1-0.3,0.3-0.3,0.5s0.1,0.4,0.4,0.5
			l-0.6,0.8H164c-0.4-0.1-0.6-0.4-0.6-0.8c0-0.1,0-0.3,0.1-0.4c0.2-0.3,0.4-0.6,0.8-0.8l1.5-1.1c0.5-0.4,0.8-0.8,0.8-1.3
			c0-0.8-0.4-1.2-1.3-1.2h-3.5v-1.4c0-0.7,0.1-1.4,0.4-1.9l0.3-0.6c0-0.1,0.1-0.2,0.1-0.3c0-0.2-0.1-0.4-0.4-0.4h-0.5v-1.1h1.2
			c0.2,0.2,0.3,0.4,0.3,0.7v0.1c0,0.2-0.1,0.5-0.2,0.8l-0.5,1c-0.1,0.2-0.2,0.5-0.2,0.7c0,0.3,0.1,0.5,0.4,0.5h4.4
			c0.2,0.4,0.3,0.7,0.3,1.2v1.1H167.5z"/>
	</g>
	<g>
		<path class="st0" d="M174.2,172.3c0,0.3-0.1,0.7-0.3,1l-0.3,0.5c-0.5,0.7-0.8,1.7-1,2.9l-0.1,0.8c-0.1,0.4-0.2,0.6-0.4,0.7l-4,1.8
			v-1.9l2.1-0.8c0.2-0.1,0.3-0.3,0.2-0.5l-1.4-3.5c-0.1-0.2-0.1-0.4-0.2-0.4c0,0-0.1-0.1-0.2-0.1H168V171h2.6v1.8h-0.9
			c-0.2,0-0.2,0.1-0.1,0.4l1.3,3.4c0.1,0.2,0.1,0.3,0.2,0.3c0,0,0.1,0,0.2,0l0.3-0.2c0.2-0.1,0.3-0.2,0.3-0.4l0.1-0.4
			c0.3-1,0.8-1.8,1.3-2.6c0.1-0.1,0.1-0.2,0.1-0.2c0-0.1-0.1-0.2-0.3-0.2h-1.6v-1.8h2.5c0.1,0.3,0.1,0.5,0.1,0.7v0.5H174.2z"/>
	</g>
	<g>
		<path class="st0" d="M79.6,184.4c0,0.8-0.4,1.5-1.2,2.1l-0.4,0.4l-0.2-0.3c0.1-0.1,0.3-0.2,0.5-0.4c0.4-0.4,0.5-0.7,0.5-0.9
			c0-0.4-0.2-0.6-0.7-0.6h-1.5v-2.4h2.7c0.2,0.3,0.3,0.6,0.3,0.9c0,0.1,0,0.4,0,0.9L79.6,184.4L79.6,184.4z"/>
	</g>
	<g>
		<path class="st0" d="M85.6,186.3c0,0.5-0.1,1-0.2,1.6c-0.1,0.5-0.2,0.9-0.4,1.2l-0.2,0.5h-0.2h-1.3H80v-2.4h3.9
			c0.5,0,0.8-0.1,1-0.3c0.2-0.2,0.2-0.5,0.2-0.9l0,0c0-0.4-0.1-0.7-0.2-0.9c-0.2-0.3-0.5-0.4-1.1-0.4h-3.9v-2.4h5.2
			c0.4,0.7,0.5,1.7,0.5,3.1V186.3z"/>
	</g>
	<g>
		<path class="st0" d="M91.9,184.6h-0.4c-0.2,0-0.4,0.1-0.5,0.4l-0.1,0.1c-0.1,0.2-0.1,0.5-0.1,0.9c0,0.2,0,0.5,0.1,1
			s0.2,0.9,0.2,1.1l0.2,0.4l-1,1.2H90l-0.1-2.2c0-0.8,0.1-1.5,0.4-2.2l0.1-0.3c0-0.1,0-0.1,0-0.2c0-0.2-0.1-0.3-0.3-0.3H86v-2.4h5.9
			V184.6z"/>
	</g>
	<g>
		<path class="st0" d="M97.8,185.1c0,2-0.1,3.5-0.2,4.6h-0.4v-3.1c0-0.9-0.1-1.4-0.2-1.6c-0.2-0.2-0.6-0.3-1.3-0.3h-3.4v-2.4h4.9
			c0.2,0.2,0.3,0.3,0.4,0.4c0.1,0.2,0.2,0.7,0.2,1.2V185.1z"/>
	</g>
	<g>
		<path class="st0" d="M104.9,187l-0.2,2.7h-4.3v-2.4h3.3c0.6,0,0.8-0.3,0.8-0.8s-0.2-0.9-0.7-1.3c-0.4-0.3-1-0.4-1.8-0.4
			c-0.7,0-1.3,0.3-1.8,0.8c-0.3,0.4-0.6,0.8-0.7,1.3c-0.1,0.4-0.2,1-0.2,1.6v1.2h-0.5c0-0.3,0-0.7,0-1.4c0-0.5,0-1,0.1-1.2
			c0.1-0.4,0.2-0.7,0.4-1c0.2-0.3,0.4-0.7,0.7-1c0-0.1,0.1-0.1,0.1-0.2c0-0.2-0.1-0.2-0.3-0.2h-1.2v-2.4h2.4
			c0.1,0.2,0.2,0.4,0.2,0.8v0.6c0,0.3-0.1,0.5-0.2,0.7c-0.1,0.1-0.1,0.2,0,0.2h0.1c0.3-0.2,0.6-0.4,0.7-0.7c0.2-0.4,0.4-0.9,0.4-1.7
			h0.2c0.7,0,1.3,0.2,1.7,0.7c0.6,0.6,0.9,1.6,0.9,3.1C104.9,186.3,104.9,186.6,104.9,187"/>
	</g>
	<g>
		<path class="st0" d="M111.4,183.8c0,0.3,0,0.6-0.1,0.8c-0.2,0.6-0.5,1.1-1,1.5l-0.6,0.5l-0.2-0.3c0.4-0.3,0.7-0.5,0.8-0.7
			c0.3-0.3,0.4-0.6,0.4-0.8c0-0.2-0.1-0.4-0.2-0.5s-0.3-0.2-0.5-0.2h-1.4v-1.8h2.5C111.3,182.5,111.4,183,111.4,183.8L111.4,183.8z"
			/>
	</g>
	<g>
		<path class="st0" d="M117.7,189.7h-6.1v-1.9h4c0.2,0,0.3-0.1,0.4-0.2c0.3-0.4,0.5-0.9,0.5-1.5c0-1-0.1-1.5-0.2-1.7
			c-0.2-0.3-0.4-0.4-0.7-0.4h-4v-1.8h5.1c0.2,0.4,0.4,1,0.4,1.8v1.1c0,0.3,0,0.6-0.1,0.9c-0.1,0.5-0.3,1-0.6,1.5
			c0,0.1-0.1,0.1,0,0.2c0,0.1,0.1,0.1,0.1,0.1h1.1v1.9H117.7z"/>
	</g>
	<g>
		<path class="st0" d="M123.5,186.4c0,1.4,0,2.6-0.1,3.3H123l-0.1-3.6c0-0.9-0.1-1.5-0.3-1.7c-0.2-0.2-0.6-0.4-1.3-0.4H118v-1.8h4.9
			c0.4,0.3,0.6,1,0.6,2V186.4z"/>
	</g>
	<g>
		<path class="st0" d="M128.8,185.3c-0.4,0.3-0.6,0.8-0.6,1.5v1c0,1.2,0.1,2.2,0.3,2.9l0.1,0.4l-0.8,1.1h-0.3l-0.1-5.1
			c0-0.8,0.3-1.4,0.9-1.9l0.2-0.2L128.8,185.3z M133.3,184.1v0.8c0,0.9-0.5,1.6-1.4,2.2l-1.5,0.9c-0.2,0.1-0.3,0.3-0.3,0.5
			s0.1,0.4,0.3,0.4l-0.7,0.7l-0.1-0.1c-0.3-0.1-0.4-0.4-0.4-0.7c0-0.2,0-0.3,0.1-0.4c0.2-0.3,0.5-0.6,1-0.9l1.3-0.8
			c0.6-0.3,0.8-0.8,0.8-1.4c0-0.9-0.5-1.4-1.4-1.4h-3.7v-1.8h5.5C133.1,182.6,133.3,183.2,133.3,184.1"/>
	</g>
	<g>
		<path class="st0" d="M137.8,182.6c-0.1,0.2-0.2,0.5-0.5,0.9c-0.4,0.6-0.9,1.2-1.5,1.8l-0.2-0.2c0.4-0.8,0.7-1.3,0.7-1.5
			c0-0.1,0-0.1,0-0.2s0-0.3-0.1-0.6c-0.1-0.3-0.1-0.5-0.1-0.6c0.3-0.5,0.7-1,1.1-1.5c0.1,0.1,0.2,0.4,0.3,0.8
			c0.1,0.4,0.2,0.6,0.2,0.9C137.8,182.5,137.8,182.5,137.8,182.6 M135.6,182.6c-0.1,0.2-0.2,0.5-0.5,0.9c-0.4,0.6-0.9,1.2-1.5,1.8
			l-0.2-0.2c0.4-0.8,0.7-1.3,0.7-1.5c0-0.1,0-0.1,0-0.2s0-0.3-0.1-0.6c-0.1-0.3-0.1-0.5-0.1-0.6c0.3-0.5,0.7-1,1.1-1.5
			c0.1,0.1,0.2,0.4,0.3,0.8c0.1,0.4,0.2,0.6,0.2,0.9C135.6,182.5,135.6,182.5,135.6,182.6"/>
	</g>
	<g>
		<path class="st0" d="M139.6,185.8c-0.3,0.4-0.4,0.8-0.4,1.1c0,0.4,0.1,1,0.3,1.7l-0.7,1.1h-0.3v-2.3c0-0.6,0.2-1.1,0.5-1.5
			l0.3-0.4L139.6,185.8z M144.3,183.7c0,0.2-0.1,0.4-0.2,0.6l-0.1,0.2c-0.1,0.3-0.2,0.6-0.2,1c0,0.2,0.1,0.9,0.3,2l0.2,1.1l-0.7,1.1
			h-0.3l-0.1-3.5c0-0.7,0.1-1.2,0.3-1.7l0.1-0.2c0.1-0.1,0.1-0.2,0.1-0.3c0-0.1-0.1-0.2-0.3-0.2h-5.1V182h6L144.3,183.7L144.3,183.7
			z"/>
	</g>
	<g>
		<path class="st0" d="M150.3,186.4c0,1.4,0,2.6-0.1,3.3h-0.4l-0.1-3.6c0-0.9-0.1-1.5-0.3-1.7c-0.2-0.2-0.6-0.4-1.3-0.4h-3.3v-1.8
			h4.9c0.4,0.3,0.6,1,0.6,2L150.3,186.4L150.3,186.4z"/>
	</g>
	<g>
		<path class="st0" d="M152.1,185.8c-0.3,0.4-0.4,0.8-0.4,1.1c0,0.4,0.1,1,0.3,1.7l-0.7,1.1H151v-2.3c0-0.6,0.2-1.1,0.5-1.5l0.3-0.4
			L152.1,185.8z M156.8,183.7c0,0.2-0.1,0.4-0.2,0.6l-0.1,0.2c-0.1,0.3-0.2,0.6-0.2,1c0,0.2,0.1,0.9,0.3,2l0.2,1.1l-0.7,1.1h-0.3
			l-0.1-3.5c0-0.7,0.1-1.2,0.3-1.7l0.1-0.2c0.1-0.1,0.1-0.2,0.1-0.3c0-0.1-0.1-0.2-0.3-0.2h-5.1V182h6L156.8,183.7L156.8,183.7z"/>
	</g>
	<g>
		<path class="st0" d="M166.3,184.6c0,0.5-0.1,0.9-0.4,1.3c-0.2,0.3-0.5,0.6-1,1l-1.5,1.1c-0.2,0.1-0.3,0.3-0.3,0.5s0.1,0.4,0.4,0.5
			l-0.6,0.8h-0.1c-0.4-0.1-0.6-0.4-0.6-0.8c0-0.1,0-0.3,0.1-0.4c0.2-0.3,0.4-0.6,0.8-0.8l1.5-1.1c0.5-0.4,0.8-0.8,0.8-1.3
			c0-0.8-0.4-1.2-1.3-1.2h-3.5v-1.4c0-0.7,0.1-1.4,0.4-1.9l0.3-0.6c0-0.1,0.1-0.2,0.1-0.3c0-0.2-0.1-0.4-0.4-0.4h-0.5v-1.1h1.2
			c0.2,0.2,0.3,0.4,0.3,0.7v0.1c0,0.2-0.1,0.5-0.2,0.8l-0.5,1c-0.1,0.2-0.2,0.5-0.2,0.7c0,0.3,0.1,0.5,0.4,0.5h4.4
			c0.2,0.4,0.3,0.7,0.3,1.2v1.1H166.3z"/>
	</g>
	<g>
		<path class="st0" d="M174.2,183.8c0,0.2-0.1,0.4-0.2,0.6s-0.2,0.3-0.3,0.5l-0.4,0.6c-0.5,0.8-0.9,1.8-1.1,3.1l-0.2,1.1h-4.5
			l-0.3-2.7c-0.1-0.6-0.1-0.9-0.1-1.1c0-0.7,0.2-1.2,0.5-1.5c0.1-0.1,0.1-0.1,0.1-0.2s-0.1-0.1-0.2-0.1h-0.6v-1.8h2.2v1.8h-0.3
			c-0.2,0-0.4,0.1-0.6,0.2s-0.3,0.3-0.4,0.6c0,0.2-0.1,0.5-0.1,0.9c0,0.5,0.1,1.1,0.2,1.6l0.1,0.5h0.2c0.1,0,0.3-0.2,0.5-0.5
			l1.4-2.7c0.1-0.1,0.1-0.2,0.1-0.3c0-0.1-0.1-0.2-0.3-0.2h-0.4v-1.8h2.1v1.8h-0.5c-0.2,0-0.3,0.1-0.5,0.4l-1.5,3
			c0,0.1-0.1,0.2-0.1,0.2c0,0.1,0.1,0.2,0.2,0.2h2.3l0.4-0.9c0.5-1,0.9-1.7,1.2-2.1l0.2-0.3c0.1-0.1,0.1-0.2,0.1-0.3
			c0-0.2-0.1-0.2-0.4-0.2h-1v-1.8h2c0.1,0.2,0.1,0.4,0.1,0.8v0.6H174.2z"/>
	</g>
	<g>
		<path class="st0" d="M96.7,199.9l-1.1,1.2l0,0L92,197c-0.1-0.1-0.2-0.2-0.3-0.2c-0.1,0-0.2,0-0.3,0.1c-0.1,0.1-0.3,0.3-0.4,0.5
			s-0.2,0.4-0.2,0.6c0,0.7,0.3,1.1,1,1.1h0.4v1.8h-2.1v-2.3c0-0.8,0.2-1.3,0.7-1.8l0.4-0.4l-1.5-1.8v-0.1l1.2-1.2l0,0l3,3.5
			c0.1,0.1,0.2,0.2,0.4,0.2c0.2,0,0.4-0.1,0.5-0.2c0.5-0.4,0.7-0.8,0.7-1.1c0-0.3-0.1-0.4-0.4-0.4H94v-1.8h2.3
			c0.1,0.3,0.2,0.6,0.2,1v0.2c0,0.5-0.2,0.9-0.5,1.4c-0.3,0.4-0.6,0.7-0.9,1l-0.5,0.4L96.7,199.9z"/>
	</g>
	<g>
		<path class="st0" d="M100.9,193.8c-0.1,0.2-0.2,0.5-0.5,0.9c-0.4,0.6-0.9,1.2-1.5,1.8l-0.2-0.2c0.4-0.8,0.7-1.3,0.7-1.5
			c0-0.1,0-0.1,0-0.2s0-0.3-0.1-0.6c-0.1-0.3-0.1-0.5-0.1-0.6c0.3-0.5,0.7-1,1.1-1.5c0.1,0.1,0.2,0.4,0.3,0.8
			c0.1,0.4,0.2,0.6,0.2,0.9C101,193.6,101,193.7,100.9,193.8 M98.7,193.8c-0.1,0.2-0.2,0.5-0.5,0.9c-0.4,0.6-0.9,1.2-1.5,1.8
			l-0.2-0.2c0.4-0.8,0.7-1.3,0.7-1.5c0-0.1,0-0.1,0-0.2s0-0.3-0.1-0.6c-0.1-0.3-0.1-0.5-0.1-0.6c0.3-0.5,0.7-1,1.1-1.5
			c0.1,0.1,0.2,0.4,0.3,0.8c0.1,0.4,0.2,0.6,0.2,0.9C98.8,193.6,98.8,193.7,98.7,193.8"/>
	</g>
	<g>
		<path class="st0" d="M107.7,194.7c0,0.3-0.1,0.7-0.3,1l-0.3,0.5c-0.5,0.7-0.8,1.7-1,2.9l-0.1,0.8c-0.1,0.4-0.2,0.6-0.4,0.7l-4,1.8
			v-1.9l2.1-0.8c0.2-0.1,0.3-0.3,0.2-0.5l-1.4-3.5c-0.1-0.2-0.1-0.4-0.2-0.4c0,0-0.1-0.1-0.2-0.1h-0.6v-1.8h2.6v1.8h-0.9
			c-0.2,0-0.2,0.1-0.1,0.4l1.3,3.4c0.1,0.2,0.1,0.3,0.2,0.3c0,0,0.1,0,0.2,0l0.3-0.2c0.2-0.1,0.3-0.2,0.3-0.4l0.1-0.4
			c0.3-1,0.8-1.8,1.3-2.6c0.1-0.1,0.1-0.2,0.1-0.2c0-0.1-0.1-0.2-0.3-0.2H105v-1.8h2.5c0.1,0.3,0.1,0.5,0.1,0.7L107.7,194.7
			L107.7,194.7z"/>
	</g>
	<g>
		<path class="st0" d="M110.9,195c0,0.3,0,0.6-0.1,0.8c-0.2,0.6-0.5,1.1-1,1.5l-0.6,0.5l-0.2-0.3c0.4-0.3,0.7-0.5,0.8-0.7
			c0.3-0.3,0.4-0.6,0.4-0.8c0-0.2-0.1-0.4-0.2-0.5s-0.3-0.2-0.5-0.2H108v-1.8h2.5C110.8,193.7,110.9,194.2,110.9,195L110.9,195z"/>
	</g>
	<g>
		<path class="st0" d="M113.9,195.2h-0.4c-0.2,0-0.3,0.1-0.5,0.4l-0.1,0.1c-0.2,0.3-0.3,0.7-0.3,1.3c0,0.2,0.1,0.5,0.2,1.1
			c0.1,0.5,0.2,1,0.3,1.3l0.1,0.4l-0.5,1.1h-0.3l-0.3-2.5c-0.1-0.5-0.1-1-0.1-1.5c0-0.4,0.2-0.8,0.5-1.2l0.2-0.3
			c0.1-0.1,0.1-0.2,0.1-0.2c0-0.1-0.1-0.1-0.2-0.1h-1.4v-1.8h2.7L113.9,195.2L113.9,195.2z"/>
	</g>
	<g>
		<path class="st0" d="M127.7,200.8h-3.6v-2.4h2.7l-0.1-0.3c-0.1-0.2-0.1-0.5-0.1-0.7s0-0.4,0.1-0.7l0.1-0.3c0-0.1,0-0.1,0-0.2
			c0-0.3-0.1-0.4-0.4-0.4h-1.8v-2.4h2.6c0.2,0.3,0.3,0.7,0.3,1.2v0.2c0,0.1-0.1,0.5-0.2,1.4l-0.1,0.3c0,0,0,0.3,0,0.8
			c0,0.2,0.1,0.5,0.2,0.8l0.4,0.8v1.9H127.7z"/>
	</g>
	<g>
		<path class="st0" d="M133.6,196.3c0,2-0.1,3.5-0.2,4.6H133v-3.1c0-0.9-0.1-1.4-0.2-1.6c-0.2-0.2-0.6-0.3-1.3-0.3h-3.4v-2.4h4.9
			c0.2,0.2,0.3,0.3,0.4,0.4c0.1,0.2,0.2,0.7,0.2,1.2V196.3z"/>
	</g>
	<g>
		<path class="st0" d="M136.8,197.5c0,0.6,0,1.7-0.1,3.4h-0.4l-0.1-2.8c0-1-0.1-1.7-0.2-1.9c-0.1-0.3-0.5-0.4-1.1-0.4H134v-2.4h2.6
			c0.1,0.3,0.2,0.6,0.2,1L136.8,197.5L136.8,197.5z"/>
	</g>
	<g>
		<path class="st0" d="M143.4,200.8h-6v-2.4h4.1c0.2,0,0.3-0.1,0.4-0.2c0.3-0.4,0.5-0.9,0.5-1.2c0-0.3-0.1-0.6-0.2-0.8
			c-0.2-0.2-0.4-0.4-0.9-0.4h-3.8v-2.4h5.1c0.3,0.4,0.4,1,0.4,1.8v0.8c0,0.2,0,0.5-0.1,0.8c0,0.3-0.2,0.7-0.5,1.3
			c-0.1,0.2-0.1,0.3,0.1,0.3h1v2.4H143.4z"/>
	</g>
	<g>
		<path class="st0" d="M149.6,195.8h-0.4c-0.2,0-0.4,0.1-0.5,0.4l-0.1,0.1c-0.1,0.2-0.1,0.5-0.1,0.9c0,0.2,0,0.5,0.1,1
			s0.2,0.9,0.2,1.1l0.2,0.4l-1,1.2h-0.3l-0.1-2.2c0-0.8,0.1-1.5,0.4-2.2l0.1-0.3c0-0.1,0-0.1,0-0.2c0-0.2-0.1-0.3-0.3-0.3h-4.3v-2.4
			h5.9v2.5H149.6z"/>
	</g>
	<g>
		<path class="st0" d="M153.6,200.8H150v-2.4h2.7l-0.1-0.3c-0.1-0.2-0.1-0.5-0.1-0.7s0-0.4,0.1-0.7l0.1-0.3c0-0.1,0-0.1,0-0.2
			c0-0.3-0.1-0.4-0.4-0.4h-1.8v-2.4h2.6c0.2,0.3,0.3,0.7,0.3,1.2v0.2c0,0.1-0.1,0.5-0.2,1.4l-0.1,0.3c0,0,0,0.3,0,0.8
			c0,0.2,0.1,0.5,0.2,0.8l0.4,0.8v1.9H153.6z"/>
	</g>
	<g>
		<path class="st0" d="M160.6,198.1l-0.2,2.7H156v-2.4h3.3c0.6,0,0.8-0.3,0.8-0.8s-0.2-0.9-0.7-1.3c-0.4-0.3-1-0.4-1.8-0.4
			c-0.7,0-1.3,0.3-1.8,0.8c-0.3,0.4-0.6,0.8-0.7,1.3c-0.1,0.4-0.2,1-0.2,1.6v1.2h-0.5c0-0.3,0-0.7,0-1.4c0-0.5,0-1,0.1-1.2
			c0.1-0.4,0.2-0.7,0.4-1c0.2-0.3,0.4-0.7,0.7-1c0-0.1,0.1-0.1,0.1-0.2c0-0.2-0.1-0.2-0.3-0.2h-1.2v-2.4h2.4
			c0.1,0.2,0.2,0.4,0.2,0.8v0.6c0,0.3-0.1,0.5-0.2,0.7c-0.1,0.1-0.1,0.2,0,0.2h0.1c0.3-0.2,0.6-0.4,0.7-0.7c0.2-0.4,0.3-0.9,0.4-1.7
			h0.2c0.7,0,1.3,0.2,1.7,0.7c0.6,0.6,0.9,1.6,0.9,3.1C160.6,197.4,160.6,197.8,160.6,198.1"/>
	</g>
	<g>
		<path class="st0" d="M87.6,215c-0.2-0.1-0.4-0.2-0.6-0.2C87.2,214.8,87.4,214.9,87.6,215"/>
	</g>
</g>
<polygon class="st0" points="204,140.3 198.3,144.8 198.5,157.9 204,153.3 "/>
<g>
	<g>
		<path class="st0" d="M213.6,90.4L213.6,90.4L213.6,90.4L213.6,90.4 M212,62.1L212,62.1L212,62.1L212,62.1L212,62.1L212,62.1
			L212,62.1L212,62.1 M226,137.5c0-0.8-0.1-1.5-0.2-2.2c0,0,0,0,0-0.1c-0.5-7.5-2.6-9.9-7.4-10.6c0.1,0,0.1-0.1,0.2-0.2v-0.1
			c0-0.2-0.1-0.4-0.3-0.4h-0.1c0,0-0.8-0.2-1-0.8c-0.1-0.5-0.1-0.9-0.6-1c-0.2-0.1-0.4-0.3-0.5-0.6c-0.1-0.5-0.1-1-0.7-1h0.1v-1.4
			c1.3-0.3,2.1-1.2,1-2.9c-1.2-1.8-1.3-5.3-1.3-6.3c0.3-0.1,0.5-0.3,0.5-0.7v-0.6c0-0.4-0.3-0.7-0.7-0.7h-0.2V106h0.9
			c0.8,0,0.7-0.5,0.9-1c0.1-0.3,0.4-0.5,0.6-0.6c0.6-0.1,0.6-0.5,0.8-1s1.2-0.8,1.2-0.8h0.2c0.2,0,0.3-0.1,0.3-0.3v-0.1
			c0-0.2-0.2-0.4-0.4-0.4h-4.5v-3h0.1c0.6,0,1.1-0.5,1.1-1.1v-0.3c0.6-0.2,1.1-0.5,1.3-1.1c0.6-1.6-0.2-2.5-0.9-4.3
			c-0.5-1.3,0.1-2.3,0.5-2.8h0.8c0.3,0,0.5-0.2,0.6-0.4v-0.1c0-0.3-0.3-0.6-0.6-0.6h-2.4V69v-0.6v-0.7v-0.8v-2.8V63
			c0.1,0.3,0.1,0.6,0.3,0.8l0,0c0.1,0.2,0.4,0.1,0.4-0.1v-0.1c0.1-0.5-0.1-0.8-0.3-1.2v-0.1c-0.1-0.2-0.1-0.4,0-0.7
			c0-0.2,0.1-0.5,0.2-0.7c0-0.3,0-0.5-0.2-0.7c-0.1-0.1-0.3-0.2-0.5-0.3c-0.4-0.1-0.8,0-1.2,0.1c-0.1,0-0.2,0-0.3,0v-0.5
			c0.2,0,0.4-0.1,0.6-0.2c0.4-0.3,0.4-0.9,0.2-1.3c-0.2-0.5-0.5-1-0.7-1.5c-0.3-0.5-0.4-1.1-0.3-1.7c0-0.3,0.1-0.5,0.2-0.8
			c-0.1,0.1-0.2,0.2-0.3,0.3c-0.3,0.4-0.6,0.8-0.8,1.2c-0.2,0.4-0.4,0.9-0.4,1.4c-0.1,0.5-0.1,1,0,1.5s0.4,0.9,0.8,1
			c0.1,0,0.3,0.1,0.4,0.1V60c-0.2,0-0.4-0.1-0.6-0.1c-0.4-0.1-0.8-0.3-1.1-0.1c-0.2,0.2-0.3,0.5-0.4,0.8c0,0.1,0,0.1,0,0.2
			c0,0,0,0,0,0.1c0,0.2,0,0.5,0,0.7s-0.1,0.5-0.1,0.7c-0.1,0.2,0,0.5,0.1,0.7c0.1,0.1,0.2,0.2,0.4,0.2v0.4v3.6V68v0.7v0.6v19.1H209
			c-0.3,0-0.6,0.3-0.6,0.6c0,0.1,0,0.1,0,0.1c0.1,0.2,0.3,0.4,0.6,0.4h0.8c0.3,0.4,0.7,1,0.7,1.9c0,0.3-0.1,0.6-0.2,0.9
			c-0.7,1.9-1.5,2.7-0.9,4.3c0.2,0.6,0.7,0.9,1.3,1.1V98c0,0.2,0,0.4,0.1,0.5c0.2,0.3,0.5,0.5,0.9,0.5h0.1v0.8v1.5v0.7h-4.5
			c-0.2,0-0.4,0.2-0.4,0.4v0.1c0,0.2,0.2,0.3,0.3,0.3h0.2c0,0,1,0.2,1.2,0.8c0.1,0.4,0.1,0.7,0.5,0.9c0.1,0,0.2,0.1,0.3,0.1
			c0.2,0.1,0.5,0.3,0.6,0.6c0.1,0.4,0.1,0.7,0.3,0.9c0.1,0.1,0.3,0.1,0.5,0.1h0.9v0.6v0.7v0.5h-0.2c-0.4,0-0.7,0.3-0.7,0.7v0.6
			c0,0.3,0.2,0.6,0.5,0.7c0,0.2,0,0.6,0,1c-0.1,1.5-0.3,3.9-1.3,5.3c-0.3,0.4-0.4,0.8-0.5,1.1c-0.1,0.9,0.5,1.5,1.5,1.7v0.3v1h0.1
			c-0.2,0-0.3,0.1-0.4,0.1c-0.2,0.2-0.2,0.5-0.3,0.9c-0.1,0.3-0.3,0.5-0.5,0.6c-0.1,0-0.2,0.1-0.2,0.1c-0.3,0.2-0.3,0.5-0.4,0.9
			c-0.2,0.5-1,0.8-1,0.8h-0.1c-0.2,0-0.3,0.2-0.3,0.4v0.1c0,0,0,0.1,0.1,0.1c-6,0.1-12.2-0.1-15.7-3c1.5,3.4,3,7.6,0.5,11.8
			l14.8-0.1c9.6,0,13.3-1.2,13.9,8.1c0.1,0.7,0.1,1.4,0.1,2.1c0,0.2,0,0.3,0,0.5c0,1.5-0.2,3.1-0.5,4.8c-0.1,0.6-0.2,1.2-0.4,1.7
			c-0.7,3.9-1.7,7-2.5,9.2c-0.2,0.5-0.4,0.9-0.6,1.4c-0.1,0.3-0.3,0.7-0.4,1c-0.1,0.2-0.1,0.3-0.2,0.5c-2.3,5-5.1,9.8-8.1,14.4
			C191,204,160.1,222,125.1,222c-22.1,0-42.6-7.2-59.2-19.3c-0.8-0.6-1.6-1.2-2.3-1.9c-0.1-0.1-0.1-0.1-0.2-0.2
			c-1.8-1.5-3.5-3-5.2-4.6c-0.1-0.1-0.3-0.2-0.4-0.4c-0.7-0.6-1.3-1.3-2-2c-0.1-0.1-0.2-0.2-0.3-0.3c-1.5-1.5-3-3.1-4.4-4.7
			c-0.2-0.2-0.4-0.5-0.6-0.8c-0.9-1-1.8-2.1-2.7-3.2c0,0,0.1,0,0.1-0.1c-7.8-9.9-13.6-20.9-17.4-32.3c-0.4-1.3-0.8-2.6-1.2-3.9
			c-1.6-6-1.1-12.1,1.1-17.9c0-0.1,0.1-0.2,0.2-0.4c0.6-1.8,1.5-3.2,2.3-4.3c0.2-0.3,0.4-0.7,0.7-1c0.9-1,1.6-1.6,1.6-1.6
			c0.1-0.1,0.3-0.1,0.4,0s0.2,0.2,0.1,0.4c-0.5,0.8-0.8,1.6-1.1,2.4c-0.3,0.8-0.6,1.6-0.8,2.4c-1.1,4.6-0.4,8.6,0.4,10.9
			c0,0.1,0.1,0.1,0.2,0.1s0.2-0.1,0.2-0.2c0.1-3.2,1.2-5.5,2.5-7.2c0.4-0.5,0.8-1,1.3-1.4c0.7-0.7,1.4-1.2,2-1.6
			c2.5-1.6,5.2-2.2,6.9-2.2c0.1,0,0.2-0.1,0.2-0.1c0-0.1,0-0.2-0.1-0.2c-2.7-2-6.1-1.2-6.3-1.1c-0.1,0-0.3,0-0.3-0.1
			c-0.1-0.1-0.1-0.2,0-0.3c3-3.7,6.9-5.5,11-5c2.8,0.3,5.6,1.8,7.2,3.9c0.1,0.1,0.1,0.1,0.2,0.1s0.1-0.1,0.1-0.2
			c0.2-3.6-1.7-7.3-5-9.8c-4.2-3.2-9.7-4.1-15.1-2.4c-7.2,2.2-11.1,8-13.2,12.9c-0.1,0.1-0.1,0.2-0.2,0.4c-0.1,0.2-0.1,0.3-0.2,0.5
			c-0.8,2-1.3,3.7-1.5,5c0,0.1-0.2,0.2-0.3,0.2c-0.2,0-0.3-0.1-0.3-0.2c-0.5-3,0.1-6.3,1.2-9.8c0.1-0.2,0.1-0.4,0.2-0.6
			c0.4-1.1,0.8-2.2,1.2-3.3c1.2-3,2.7-6.1,4.3-9.3c3.2-6.5,6.5-13.3,7.9-20.1c1.7-8.2-0.5-16.7-6.1-23.3c-0.1-0.1-0.3-0.3-0.4-0.4
			c-0.2-0.3-0.5-0.5-0.8-0.8c-2.6-2.6-5.4-4.3-8.2-5.3c-4.3-1.6-8.4-1.5-10.7-1c-0.1,0-0.1,0.1-0.2,0.2c0,0.1,0,0.2,0.1,0.2
			c3.6,1.6,6.3,3.8,8.1,6.7c0.3,0.5,0.6,1.1,0.9,1.6c3.7,8.1-0.2,18.1-2,22c0,0.1-0.2,0.2-0.3,0.2c-0.1,0-0.2-0.1-0.3-0.2
			c-0.9-2.4-2.2-4.1-3.7-5.4c-1.6-1.4-3.3-2.3-4.5-2.8c-0.1,0-0.2,0-0.2,0c-0.1,0.1-0.1,0.2,0,0.2c3.7,5.3,2.7,12.9,1.6,20.9
			c-1.2,8.8-2.4,17.8,1.8,25.3c0,0.1,0.1,0.1,0.2,0.1s0.2-0.1,0.2-0.2c-0.1-2.1-0.1-4.3,0-6.3c0.9-12.7,6.4-23.6,10-29.4
			c0.2-0.4,0.5-0.7,0.7-1.1c1.3-2.1,2.3-3.3,2.3-3.4c0.1-0.1,0.3-0.2,0.4-0.1s0.2,0.2,0.1,0.4c0,0-0.4,0.8-1,2.1
			c-1,1.7-1.9,3.5-2.9,5.5c-3.4,7.2-6.3,16.5-6.3,27.3c0,0.6,0,1.3,0,1.9c0,0.9,0.1,1.8,0.2,2.6c0.3,19.5,5.9,39.1,17.4,56.6
			c1.2,1.8,2.4,3.5,3.7,5.2c0.1,0.1,0.2,0.2,0.3,0.4c0.6,0.7,1.1,1.5,1.7,2.2c0.1,0.1,0.2,0.3,0.3,0.4c1.5,1.8,3,3.6,4.5,5.3
			c0.1,0.1,0.1,0.1,0.2,0.2c0.8,0.9,1.7,1.8,2.5,2.6c0.3,0.3,0.6,0.6,0.9,0.9c0.6,0.6,1.2,1.2,1.8,1.8c0.6,0.5,1.2,1.1,1.8,1.6
			c0.3,0.3,0.7,0.6,1,0.9c0.9,0.8,1.8,1.6,2.7,2.3c0,0,0,0,0.1,0.1c2,1.6,4,3.2,6.1,4.6c0.3,0.2,0.5,0.4,0.8,0.6
			c0.2,0.1,0.4,0.2,0.6,0.4c25.7,17.4,57.8,22.5,87.3,14.5c0,0,0,0,0-0.1c32.4-8.6,58.4-31.9,69.3-61.8c1.5-3.5,2.4-6.3,2.8-7.7
			c0.2-0.8,0.5-1.5,0.7-2.3c0.4-1.7,0.8-3.8,1.2-6.2C225.8,142.9,226.1,140.7,226,137.5"/>
	</g>
	<g>
		<path class="st0" d="M37.1,58.5c1.5,1.8,2.9,3.7,4,5.8C50.2,51,62.4,40,76.8,32.6c0.1-0.1,0.2-0.1,0.3-0.2c1-0.5,2-1,3-1.5
			c1.1-0.5,2.1-1,3.2-1.5c0.7-0.3,1.4-0.6,2.1-0.9c1.1-0.4,2.2-0.9,3.4-1.3c10.2-3.7,21.2-5.7,32.6-5.7c22.2,0,42.6,7.5,58.9,20V31
			c-16.9-11.4-37.1-18-58.9-18c-2.2,0-4.3,0.1-6.4,0.2c-0.2,0-0.3,0-0.5,0c-0.9,0.1-1.9,0.1-2.8,0.2c-0.2,0-0.4,0-0.5,0.1
			c-2.3,0.2-4.6,0.5-6.9,0.9c-0.1,0-0.2,0-0.3,0c-1.2,0.2-2.4,0.4-3.6,0.7c-0.4,0.1-0.8,0.2-1.2,0.3c-0.8,0.2-1.7,0.4-2.5,0.6
			c-0.8,0.2-1.5,0.4-2.3,0.6c-0.4,0.1-0.9,0.2-1.3,0.3c-1.2,0.3-2.3,0.7-3.4,1h-0.1c-22.2,7-40.9,20.9-54,39.1
			c0.3,0.3,0.6,0.6,0.9,1C36.7,58.1,36.9,58.3,37.1,58.5"/>
	</g>
	<g>
		<path class="st0" d="M211.4,61.4L211.4,61.4L211.4,61.4L211.4,61.4L211.4,61.4"/>
	</g>
	<g>
		<polyline class="st0" points="211.4,61.4 211.4,61.4 211.4,61.4 		"/>
	</g>
</g>
</svg>
